G04 #@! TF.GenerationSoftware,KiCad,Pcbnew,9.0.2*
G04 #@! TF.CreationDate,2025-07-04T19:53:15+12:00*
G04 #@! TF.ProjectId,DuckyDK MTR-1,4475636b-7944-44b2-904d-54522d312e6b,rev?*
G04 #@! TF.SameCoordinates,Original*
G04 #@! TF.FileFunction,Legend,Top*
G04 #@! TF.FilePolarity,Positive*
%FSLAX46Y46*%
G04 Gerber Fmt 4.6, Leading zero omitted, Abs format (unit mm)*
G04 Created by KiCad (PCBNEW 9.0.2) date 2025-07-04 19:53:15*
%MOMM*%
%LPD*%
G01*
G04 APERTURE LIST*
G04 Aperture macros list*
%AMRoundRect*
0 Rectangle with rounded corners*
0 $1 Rounding radius*
0 $2 $3 $4 $5 $6 $7 $8 $9 X,Y pos of 4 corners*
0 Add a 4 corners polygon primitive as box body*
4,1,4,$2,$3,$4,$5,$6,$7,$8,$9,$2,$3,0*
0 Add four circle primitives for the rounded corners*
1,1,$1+$1,$2,$3*
1,1,$1+$1,$4,$5*
1,1,$1+$1,$6,$7*
1,1,$1+$1,$8,$9*
0 Add four rect primitives between the rounded corners*
20,1,$1+$1,$2,$3,$4,$5,0*
20,1,$1+$1,$4,$5,$6,$7,0*
20,1,$1+$1,$6,$7,$8,$9,0*
20,1,$1+$1,$8,$9,$2,$3,0*%
G04 Aperture macros list end*
%ADD10C,0.100000*%
%ADD11C,0.150000*%
%ADD12C,0.625000*%
%ADD13C,0.350000*%
%ADD14C,0.200000*%
%ADD15C,0.120000*%
%ADD16C,0.127000*%
%ADD17C,0.340000*%
%ADD18C,0.000000*%
%ADD19R,1.700000X1.700000*%
%ADD20C,1.700000*%
%ADD21C,1.600000*%
%ADD22RoundRect,0.250000X0.550000X-0.550000X0.550000X0.550000X-0.550000X0.550000X-0.550000X-0.550000X0*%
%ADD23RoundRect,0.250000X-0.550000X0.550000X-0.550000X-0.550000X0.550000X-0.550000X0.550000X0.550000X0*%
%ADD24RoundRect,0.076750X-0.810250X-0.230250X0.810250X-0.230250X0.810250X0.230250X-0.810250X0.230250X0*%
%ADD25C,0.976200*%
%ADD26C,1.476200*%
%ADD27R,1.270000X0.903600*%
%ADD28O,1.270000X0.903600*%
%ADD29O,1.712000X3.220000*%
%ADD30O,3.220000X1.712000*%
%ADD31C,1.712000*%
%ADD32RoundRect,0.076750X-0.775250X-0.230250X0.775250X-0.230250X0.775250X0.230250X-0.775250X0.230250X0*%
G04 APERTURE END LIST*
D10*
X72099200Y-138684000D02*
X105599200Y-138684000D01*
X105599200Y-139684000D01*
X72099200Y-139684000D01*
X72099200Y-138684000D01*
X48615600Y-138542400D02*
X67132200Y-138542400D01*
X67132200Y-139507600D01*
X48615600Y-139507600D01*
X48615600Y-138542400D01*
X111188500Y-138734800D02*
X129705100Y-138734800D01*
X129705100Y-139700000D01*
X111188500Y-139700000D01*
X111188500Y-138734800D01*
X71849200Y-138684000D02*
X105849200Y-138684000D01*
X105849200Y-139684000D01*
X71849200Y-139684000D01*
X71849200Y-138684000D01*
X114592100Y-138734800D02*
X126301500Y-138734800D01*
X126301500Y-139700000D01*
X114592100Y-139700000D01*
X114592100Y-138734800D01*
X133286500Y-74424100D02*
X134277100Y-74424100D01*
X134277100Y-96424100D01*
X133286500Y-96424100D01*
X133286500Y-74424100D01*
X133261100Y-112973500D02*
X134251700Y-112973500D01*
X134251700Y-134973500D01*
X133261100Y-134973500D01*
X133261100Y-112973500D01*
D11*
X86496760Y-130907495D02*
X86496760Y-130107495D01*
X86839617Y-130907495D02*
X86839617Y-130488447D01*
X86839617Y-130488447D02*
X86801522Y-130412257D01*
X86801522Y-130412257D02*
X86725331Y-130374161D01*
X86725331Y-130374161D02*
X86611045Y-130374161D01*
X86611045Y-130374161D02*
X86534855Y-130412257D01*
X86534855Y-130412257D02*
X86496760Y-130450352D01*
X87106284Y-130374161D02*
X87411046Y-130374161D01*
X87220570Y-130107495D02*
X87220570Y-130793209D01*
X87220570Y-130793209D02*
X87258665Y-130869400D01*
X87258665Y-130869400D02*
X87334855Y-130907495D01*
X87334855Y-130907495D02*
X87411046Y-130907495D01*
X87563427Y-130374161D02*
X87868189Y-130374161D01*
X87677713Y-130107495D02*
X87677713Y-130793209D01*
X87677713Y-130793209D02*
X87715808Y-130869400D01*
X87715808Y-130869400D02*
X87791998Y-130907495D01*
X87791998Y-130907495D02*
X87868189Y-130907495D01*
X88134856Y-130374161D02*
X88134856Y-131174161D01*
X88134856Y-130412257D02*
X88211046Y-130374161D01*
X88211046Y-130374161D02*
X88363427Y-130374161D01*
X88363427Y-130374161D02*
X88439618Y-130412257D01*
X88439618Y-130412257D02*
X88477713Y-130450352D01*
X88477713Y-130450352D02*
X88515808Y-130526542D01*
X88515808Y-130526542D02*
X88515808Y-130755114D01*
X88515808Y-130755114D02*
X88477713Y-130831304D01*
X88477713Y-130831304D02*
X88439618Y-130869400D01*
X88439618Y-130869400D02*
X88363427Y-130907495D01*
X88363427Y-130907495D02*
X88211046Y-130907495D01*
X88211046Y-130907495D02*
X88134856Y-130869400D01*
X88820570Y-130869400D02*
X88896761Y-130907495D01*
X88896761Y-130907495D02*
X89049142Y-130907495D01*
X89049142Y-130907495D02*
X89125332Y-130869400D01*
X89125332Y-130869400D02*
X89163428Y-130793209D01*
X89163428Y-130793209D02*
X89163428Y-130755114D01*
X89163428Y-130755114D02*
X89125332Y-130678923D01*
X89125332Y-130678923D02*
X89049142Y-130640828D01*
X89049142Y-130640828D02*
X88934856Y-130640828D01*
X88934856Y-130640828D02*
X88858666Y-130602733D01*
X88858666Y-130602733D02*
X88820570Y-130526542D01*
X88820570Y-130526542D02*
X88820570Y-130488447D01*
X88820570Y-130488447D02*
X88858666Y-130412257D01*
X88858666Y-130412257D02*
X88934856Y-130374161D01*
X88934856Y-130374161D02*
X89049142Y-130374161D01*
X89049142Y-130374161D02*
X89125332Y-130412257D01*
X89506285Y-130831304D02*
X89544380Y-130869400D01*
X89544380Y-130869400D02*
X89506285Y-130907495D01*
X89506285Y-130907495D02*
X89468189Y-130869400D01*
X89468189Y-130869400D02*
X89506285Y-130831304D01*
X89506285Y-130831304D02*
X89506285Y-130907495D01*
X89506285Y-130412257D02*
X89544380Y-130450352D01*
X89544380Y-130450352D02*
X89506285Y-130488447D01*
X89506285Y-130488447D02*
X89468189Y-130450352D01*
X89468189Y-130450352D02*
X89506285Y-130412257D01*
X89506285Y-130412257D02*
X89506285Y-130488447D01*
X90458665Y-130069400D02*
X89772951Y-131097971D01*
X91296760Y-130069400D02*
X90611046Y-131097971D01*
X91906284Y-130374161D02*
X91906284Y-131021780D01*
X91906284Y-131021780D02*
X91868189Y-131097971D01*
X91868189Y-131097971D02*
X91830093Y-131136066D01*
X91830093Y-131136066D02*
X91753903Y-131174161D01*
X91753903Y-131174161D02*
X91639617Y-131174161D01*
X91639617Y-131174161D02*
X91563427Y-131136066D01*
X91906284Y-130869400D02*
X91830093Y-130907495D01*
X91830093Y-130907495D02*
X91677712Y-130907495D01*
X91677712Y-130907495D02*
X91601522Y-130869400D01*
X91601522Y-130869400D02*
X91563427Y-130831304D01*
X91563427Y-130831304D02*
X91525331Y-130755114D01*
X91525331Y-130755114D02*
X91525331Y-130526542D01*
X91525331Y-130526542D02*
X91563427Y-130450352D01*
X91563427Y-130450352D02*
X91601522Y-130412257D01*
X91601522Y-130412257D02*
X91677712Y-130374161D01*
X91677712Y-130374161D02*
X91830093Y-130374161D01*
X91830093Y-130374161D02*
X91906284Y-130412257D01*
X92287237Y-130907495D02*
X92287237Y-130374161D01*
X92287237Y-130107495D02*
X92249141Y-130145590D01*
X92249141Y-130145590D02*
X92287237Y-130183685D01*
X92287237Y-130183685D02*
X92325332Y-130145590D01*
X92325332Y-130145590D02*
X92287237Y-130107495D01*
X92287237Y-130107495D02*
X92287237Y-130183685D01*
X92553903Y-130374161D02*
X92858665Y-130374161D01*
X92668189Y-130107495D02*
X92668189Y-130793209D01*
X92668189Y-130793209D02*
X92706284Y-130869400D01*
X92706284Y-130869400D02*
X92782474Y-130907495D01*
X92782474Y-130907495D02*
X92858665Y-130907495D01*
X93125332Y-130907495D02*
X93125332Y-130107495D01*
X93468189Y-130907495D02*
X93468189Y-130488447D01*
X93468189Y-130488447D02*
X93430094Y-130412257D01*
X93430094Y-130412257D02*
X93353903Y-130374161D01*
X93353903Y-130374161D02*
X93239617Y-130374161D01*
X93239617Y-130374161D02*
X93163427Y-130412257D01*
X93163427Y-130412257D02*
X93125332Y-130450352D01*
X94191999Y-130374161D02*
X94191999Y-130907495D01*
X93849142Y-130374161D02*
X93849142Y-130793209D01*
X93849142Y-130793209D02*
X93887237Y-130869400D01*
X93887237Y-130869400D02*
X93963427Y-130907495D01*
X93963427Y-130907495D02*
X94077713Y-130907495D01*
X94077713Y-130907495D02*
X94153904Y-130869400D01*
X94153904Y-130869400D02*
X94191999Y-130831304D01*
X94572952Y-130907495D02*
X94572952Y-130107495D01*
X94572952Y-130412257D02*
X94649142Y-130374161D01*
X94649142Y-130374161D02*
X94801523Y-130374161D01*
X94801523Y-130374161D02*
X94877714Y-130412257D01*
X94877714Y-130412257D02*
X94915809Y-130450352D01*
X94915809Y-130450352D02*
X94953904Y-130526542D01*
X94953904Y-130526542D02*
X94953904Y-130755114D01*
X94953904Y-130755114D02*
X94915809Y-130831304D01*
X94915809Y-130831304D02*
X94877714Y-130869400D01*
X94877714Y-130869400D02*
X94801523Y-130907495D01*
X94801523Y-130907495D02*
X94649142Y-130907495D01*
X94649142Y-130907495D02*
X94572952Y-130869400D01*
X95296762Y-130831304D02*
X95334857Y-130869400D01*
X95334857Y-130869400D02*
X95296762Y-130907495D01*
X95296762Y-130907495D02*
X95258666Y-130869400D01*
X95258666Y-130869400D02*
X95296762Y-130831304D01*
X95296762Y-130831304D02*
X95296762Y-130907495D01*
X96020571Y-130869400D02*
X95944380Y-130907495D01*
X95944380Y-130907495D02*
X95791999Y-130907495D01*
X95791999Y-130907495D02*
X95715809Y-130869400D01*
X95715809Y-130869400D02*
X95677714Y-130831304D01*
X95677714Y-130831304D02*
X95639618Y-130755114D01*
X95639618Y-130755114D02*
X95639618Y-130526542D01*
X95639618Y-130526542D02*
X95677714Y-130450352D01*
X95677714Y-130450352D02*
X95715809Y-130412257D01*
X95715809Y-130412257D02*
X95791999Y-130374161D01*
X95791999Y-130374161D02*
X95944380Y-130374161D01*
X95944380Y-130374161D02*
X96020571Y-130412257D01*
X96477713Y-130907495D02*
X96401523Y-130869400D01*
X96401523Y-130869400D02*
X96363428Y-130831304D01*
X96363428Y-130831304D02*
X96325332Y-130755114D01*
X96325332Y-130755114D02*
X96325332Y-130526542D01*
X96325332Y-130526542D02*
X96363428Y-130450352D01*
X96363428Y-130450352D02*
X96401523Y-130412257D01*
X96401523Y-130412257D02*
X96477713Y-130374161D01*
X96477713Y-130374161D02*
X96591999Y-130374161D01*
X96591999Y-130374161D02*
X96668190Y-130412257D01*
X96668190Y-130412257D02*
X96706285Y-130450352D01*
X96706285Y-130450352D02*
X96744380Y-130526542D01*
X96744380Y-130526542D02*
X96744380Y-130755114D01*
X96744380Y-130755114D02*
X96706285Y-130831304D01*
X96706285Y-130831304D02*
X96668190Y-130869400D01*
X96668190Y-130869400D02*
X96591999Y-130907495D01*
X96591999Y-130907495D02*
X96477713Y-130907495D01*
X97087238Y-130907495D02*
X97087238Y-130374161D01*
X97087238Y-130450352D02*
X97125333Y-130412257D01*
X97125333Y-130412257D02*
X97201523Y-130374161D01*
X97201523Y-130374161D02*
X97315809Y-130374161D01*
X97315809Y-130374161D02*
X97392000Y-130412257D01*
X97392000Y-130412257D02*
X97430095Y-130488447D01*
X97430095Y-130488447D02*
X97430095Y-130907495D01*
X97430095Y-130488447D02*
X97468190Y-130412257D01*
X97468190Y-130412257D02*
X97544381Y-130374161D01*
X97544381Y-130374161D02*
X97658666Y-130374161D01*
X97658666Y-130374161D02*
X97734857Y-130412257D01*
X97734857Y-130412257D02*
X97772952Y-130488447D01*
X97772952Y-130488447D02*
X97772952Y-130907495D01*
X98725333Y-130069400D02*
X98039619Y-131097971D01*
X98992000Y-130907495D02*
X98992000Y-130107495D01*
X98992000Y-130107495D02*
X99182476Y-130107495D01*
X99182476Y-130107495D02*
X99296762Y-130145590D01*
X99296762Y-130145590D02*
X99372952Y-130221780D01*
X99372952Y-130221780D02*
X99411047Y-130297971D01*
X99411047Y-130297971D02*
X99449143Y-130450352D01*
X99449143Y-130450352D02*
X99449143Y-130564638D01*
X99449143Y-130564638D02*
X99411047Y-130717019D01*
X99411047Y-130717019D02*
X99372952Y-130793209D01*
X99372952Y-130793209D02*
X99296762Y-130869400D01*
X99296762Y-130869400D02*
X99182476Y-130907495D01*
X99182476Y-130907495D02*
X98992000Y-130907495D01*
X100134857Y-130374161D02*
X100134857Y-130907495D01*
X99792000Y-130374161D02*
X99792000Y-130793209D01*
X99792000Y-130793209D02*
X99830095Y-130869400D01*
X99830095Y-130869400D02*
X99906285Y-130907495D01*
X99906285Y-130907495D02*
X100020571Y-130907495D01*
X100020571Y-130907495D02*
X100096762Y-130869400D01*
X100096762Y-130869400D02*
X100134857Y-130831304D01*
X100858667Y-130869400D02*
X100782476Y-130907495D01*
X100782476Y-130907495D02*
X100630095Y-130907495D01*
X100630095Y-130907495D02*
X100553905Y-130869400D01*
X100553905Y-130869400D02*
X100515810Y-130831304D01*
X100515810Y-130831304D02*
X100477714Y-130755114D01*
X100477714Y-130755114D02*
X100477714Y-130526542D01*
X100477714Y-130526542D02*
X100515810Y-130450352D01*
X100515810Y-130450352D02*
X100553905Y-130412257D01*
X100553905Y-130412257D02*
X100630095Y-130374161D01*
X100630095Y-130374161D02*
X100782476Y-130374161D01*
X100782476Y-130374161D02*
X100858667Y-130412257D01*
X101201524Y-130907495D02*
X101201524Y-130107495D01*
X101277714Y-130602733D02*
X101506286Y-130907495D01*
X101506286Y-130374161D02*
X101201524Y-130678923D01*
X101772952Y-130374161D02*
X101963428Y-130907495D01*
X102153905Y-130374161D02*
X101963428Y-130907495D01*
X101963428Y-130907495D02*
X101887238Y-131097971D01*
X101887238Y-131097971D02*
X101849143Y-131136066D01*
X101849143Y-131136066D02*
X101772952Y-131174161D01*
X102725333Y-130488447D02*
X102839619Y-130526542D01*
X102839619Y-130526542D02*
X102877714Y-130564638D01*
X102877714Y-130564638D02*
X102915810Y-130640828D01*
X102915810Y-130640828D02*
X102915810Y-130755114D01*
X102915810Y-130755114D02*
X102877714Y-130831304D01*
X102877714Y-130831304D02*
X102839619Y-130869400D01*
X102839619Y-130869400D02*
X102763429Y-130907495D01*
X102763429Y-130907495D02*
X102458667Y-130907495D01*
X102458667Y-130907495D02*
X102458667Y-130107495D01*
X102458667Y-130107495D02*
X102725333Y-130107495D01*
X102725333Y-130107495D02*
X102801524Y-130145590D01*
X102801524Y-130145590D02*
X102839619Y-130183685D01*
X102839619Y-130183685D02*
X102877714Y-130259876D01*
X102877714Y-130259876D02*
X102877714Y-130336066D01*
X102877714Y-130336066D02*
X102839619Y-130412257D01*
X102839619Y-130412257D02*
X102801524Y-130450352D01*
X102801524Y-130450352D02*
X102725333Y-130488447D01*
X102725333Y-130488447D02*
X102458667Y-130488447D01*
X103372952Y-130907495D02*
X103296762Y-130869400D01*
X103296762Y-130869400D02*
X103258667Y-130831304D01*
X103258667Y-130831304D02*
X103220571Y-130755114D01*
X103220571Y-130755114D02*
X103220571Y-130526542D01*
X103220571Y-130526542D02*
X103258667Y-130450352D01*
X103258667Y-130450352D02*
X103296762Y-130412257D01*
X103296762Y-130412257D02*
X103372952Y-130374161D01*
X103372952Y-130374161D02*
X103487238Y-130374161D01*
X103487238Y-130374161D02*
X103563429Y-130412257D01*
X103563429Y-130412257D02*
X103601524Y-130450352D01*
X103601524Y-130450352D02*
X103639619Y-130526542D01*
X103639619Y-130526542D02*
X103639619Y-130755114D01*
X103639619Y-130755114D02*
X103601524Y-130831304D01*
X103601524Y-130831304D02*
X103563429Y-130869400D01*
X103563429Y-130869400D02*
X103487238Y-130907495D01*
X103487238Y-130907495D02*
X103372952Y-130907495D01*
X103982477Y-130907495D02*
X103982477Y-130374161D01*
X103982477Y-130107495D02*
X103944381Y-130145590D01*
X103944381Y-130145590D02*
X103982477Y-130183685D01*
X103982477Y-130183685D02*
X104020572Y-130145590D01*
X104020572Y-130145590D02*
X103982477Y-130107495D01*
X103982477Y-130107495D02*
X103982477Y-130183685D01*
X104363429Y-130602733D02*
X104972953Y-130602733D01*
X105277714Y-130107495D02*
X105811048Y-130907495D01*
X105811048Y-130107495D02*
X105277714Y-130907495D01*
X106115810Y-130907495D02*
X106115810Y-130107495D01*
X106115810Y-130107495D02*
X106306286Y-130107495D01*
X106306286Y-130107495D02*
X106420572Y-130145590D01*
X106420572Y-130145590D02*
X106496762Y-130221780D01*
X106496762Y-130221780D02*
X106534857Y-130297971D01*
X106534857Y-130297971D02*
X106572953Y-130450352D01*
X106572953Y-130450352D02*
X106572953Y-130564638D01*
X106572953Y-130564638D02*
X106534857Y-130717019D01*
X106534857Y-130717019D02*
X106496762Y-130793209D01*
X106496762Y-130793209D02*
X106420572Y-130869400D01*
X106420572Y-130869400D02*
X106306286Y-130907495D01*
X106306286Y-130907495D02*
X106115810Y-130907495D01*
X107487238Y-130069400D02*
X106801524Y-131097971D01*
X107753905Y-130907495D02*
X107753905Y-130107495D01*
X107753905Y-130107495D02*
X107944381Y-130107495D01*
X107944381Y-130107495D02*
X108058667Y-130145590D01*
X108058667Y-130145590D02*
X108134857Y-130221780D01*
X108134857Y-130221780D02*
X108172952Y-130297971D01*
X108172952Y-130297971D02*
X108211048Y-130450352D01*
X108211048Y-130450352D02*
X108211048Y-130564638D01*
X108211048Y-130564638D02*
X108172952Y-130717019D01*
X108172952Y-130717019D02*
X108134857Y-130793209D01*
X108134857Y-130793209D02*
X108058667Y-130869400D01*
X108058667Y-130869400D02*
X107944381Y-130907495D01*
X107944381Y-130907495D02*
X107753905Y-130907495D01*
X108896762Y-130374161D02*
X108896762Y-130907495D01*
X108553905Y-130374161D02*
X108553905Y-130793209D01*
X108553905Y-130793209D02*
X108592000Y-130869400D01*
X108592000Y-130869400D02*
X108668190Y-130907495D01*
X108668190Y-130907495D02*
X108782476Y-130907495D01*
X108782476Y-130907495D02*
X108858667Y-130869400D01*
X108858667Y-130869400D02*
X108896762Y-130831304D01*
X109620572Y-130869400D02*
X109544381Y-130907495D01*
X109544381Y-130907495D02*
X109392000Y-130907495D01*
X109392000Y-130907495D02*
X109315810Y-130869400D01*
X109315810Y-130869400D02*
X109277715Y-130831304D01*
X109277715Y-130831304D02*
X109239619Y-130755114D01*
X109239619Y-130755114D02*
X109239619Y-130526542D01*
X109239619Y-130526542D02*
X109277715Y-130450352D01*
X109277715Y-130450352D02*
X109315810Y-130412257D01*
X109315810Y-130412257D02*
X109392000Y-130374161D01*
X109392000Y-130374161D02*
X109544381Y-130374161D01*
X109544381Y-130374161D02*
X109620572Y-130412257D01*
X109963429Y-130907495D02*
X109963429Y-130107495D01*
X110039619Y-130602733D02*
X110268191Y-130907495D01*
X110268191Y-130374161D02*
X109963429Y-130678923D01*
X110534857Y-130374161D02*
X110725333Y-130907495D01*
X110915810Y-130374161D02*
X110725333Y-130907495D01*
X110725333Y-130907495D02*
X110649143Y-131097971D01*
X110649143Y-131097971D02*
X110611048Y-131136066D01*
X110611048Y-131136066D02*
X110534857Y-131174161D01*
X111220572Y-130907495D02*
X111220572Y-130107495D01*
X111220572Y-130107495D02*
X111411048Y-130107495D01*
X111411048Y-130107495D02*
X111525334Y-130145590D01*
X111525334Y-130145590D02*
X111601524Y-130221780D01*
X111601524Y-130221780D02*
X111639619Y-130297971D01*
X111639619Y-130297971D02*
X111677715Y-130450352D01*
X111677715Y-130450352D02*
X111677715Y-130564638D01*
X111677715Y-130564638D02*
X111639619Y-130717019D01*
X111639619Y-130717019D02*
X111601524Y-130793209D01*
X111601524Y-130793209D02*
X111525334Y-130869400D01*
X111525334Y-130869400D02*
X111411048Y-130907495D01*
X111411048Y-130907495D02*
X111220572Y-130907495D01*
X112020572Y-130907495D02*
X112020572Y-130107495D01*
X112477715Y-130907495D02*
X112134857Y-130450352D01*
X112477715Y-130107495D02*
X112020572Y-130564638D01*
X112820572Y-130602733D02*
X113430096Y-130602733D01*
X113811048Y-130907495D02*
X113811048Y-130107495D01*
X113811048Y-130107495D02*
X114077714Y-130678923D01*
X114077714Y-130678923D02*
X114344381Y-130107495D01*
X114344381Y-130107495D02*
X114344381Y-130907495D01*
X114611048Y-130107495D02*
X115068191Y-130107495D01*
X114839619Y-130907495D02*
X114839619Y-130107495D01*
X115792001Y-130907495D02*
X115525334Y-130526542D01*
X115334858Y-130907495D02*
X115334858Y-130107495D01*
X115334858Y-130107495D02*
X115639620Y-130107495D01*
X115639620Y-130107495D02*
X115715810Y-130145590D01*
X115715810Y-130145590D02*
X115753905Y-130183685D01*
X115753905Y-130183685D02*
X115792001Y-130259876D01*
X115792001Y-130259876D02*
X115792001Y-130374161D01*
X115792001Y-130374161D02*
X115753905Y-130450352D01*
X115753905Y-130450352D02*
X115715810Y-130488447D01*
X115715810Y-130488447D02*
X115639620Y-130526542D01*
X115639620Y-130526542D02*
X115334858Y-130526542D01*
X116134858Y-130602733D02*
X116744382Y-130602733D01*
X117544381Y-130907495D02*
X117087238Y-130907495D01*
X117315810Y-130907495D02*
X117315810Y-130107495D01*
X117315810Y-130107495D02*
X117239619Y-130221780D01*
X117239619Y-130221780D02*
X117163429Y-130297971D01*
X117163429Y-130297971D02*
X117087238Y-130336066D01*
D12*
X86858422Y-128744347D02*
X86858422Y-126244347D01*
X86858422Y-126244347D02*
X87453660Y-126244347D01*
X87453660Y-126244347D02*
X87810803Y-126363395D01*
X87810803Y-126363395D02*
X88048898Y-126601490D01*
X88048898Y-126601490D02*
X88167945Y-126839585D01*
X88167945Y-126839585D02*
X88286993Y-127315776D01*
X88286993Y-127315776D02*
X88286993Y-127672919D01*
X88286993Y-127672919D02*
X88167945Y-128149109D01*
X88167945Y-128149109D02*
X88048898Y-128387204D01*
X88048898Y-128387204D02*
X87810803Y-128625300D01*
X87810803Y-128625300D02*
X87453660Y-128744347D01*
X87453660Y-128744347D02*
X86858422Y-128744347D01*
X90429850Y-127077680D02*
X90429850Y-128744347D01*
X89358422Y-127077680D02*
X89358422Y-128387204D01*
X89358422Y-128387204D02*
X89477469Y-128625300D01*
X89477469Y-128625300D02*
X89715564Y-128744347D01*
X89715564Y-128744347D02*
X90072707Y-128744347D01*
X90072707Y-128744347D02*
X90310803Y-128625300D01*
X90310803Y-128625300D02*
X90429850Y-128506252D01*
X92691755Y-128625300D02*
X92453660Y-128744347D01*
X92453660Y-128744347D02*
X91977469Y-128744347D01*
X91977469Y-128744347D02*
X91739374Y-128625300D01*
X91739374Y-128625300D02*
X91620327Y-128506252D01*
X91620327Y-128506252D02*
X91501279Y-128268157D01*
X91501279Y-128268157D02*
X91501279Y-127553871D01*
X91501279Y-127553871D02*
X91620327Y-127315776D01*
X91620327Y-127315776D02*
X91739374Y-127196728D01*
X91739374Y-127196728D02*
X91977469Y-127077680D01*
X91977469Y-127077680D02*
X92453660Y-127077680D01*
X92453660Y-127077680D02*
X92691755Y-127196728D01*
X93763184Y-128744347D02*
X93763184Y-126244347D01*
X94001279Y-127791966D02*
X94715565Y-128744347D01*
X94715565Y-127077680D02*
X93763184Y-128030061D01*
X95548898Y-127077680D02*
X96144136Y-128744347D01*
X96739375Y-127077680D02*
X96144136Y-128744347D01*
X96144136Y-128744347D02*
X95906041Y-129339585D01*
X95906041Y-129339585D02*
X95786994Y-129458633D01*
X95786994Y-129458633D02*
X95548898Y-129577680D01*
X97691756Y-128744347D02*
X97691756Y-126244347D01*
X97691756Y-126244347D02*
X98286994Y-126244347D01*
X98286994Y-126244347D02*
X98644137Y-126363395D01*
X98644137Y-126363395D02*
X98882232Y-126601490D01*
X98882232Y-126601490D02*
X99001279Y-126839585D01*
X99001279Y-126839585D02*
X99120327Y-127315776D01*
X99120327Y-127315776D02*
X99120327Y-127672919D01*
X99120327Y-127672919D02*
X99001279Y-128149109D01*
X99001279Y-128149109D02*
X98882232Y-128387204D01*
X98882232Y-128387204D02*
X98644137Y-128625300D01*
X98644137Y-128625300D02*
X98286994Y-128744347D01*
X98286994Y-128744347D02*
X97691756Y-128744347D01*
X100191756Y-128744347D02*
X100191756Y-126244347D01*
X101620327Y-128744347D02*
X100548898Y-127315776D01*
X101620327Y-126244347D02*
X100191756Y-127672919D01*
X104596518Y-128744347D02*
X104596518Y-126244347D01*
X104596518Y-126244347D02*
X105429851Y-128030061D01*
X105429851Y-128030061D02*
X106263184Y-126244347D01*
X106263184Y-126244347D02*
X106263184Y-128744347D01*
X107096518Y-126244347D02*
X108525089Y-126244347D01*
X107810803Y-128744347D02*
X107810803Y-126244347D01*
X110786994Y-128744347D02*
X109953661Y-127553871D01*
X109358423Y-128744347D02*
X109358423Y-126244347D01*
X109358423Y-126244347D02*
X110310804Y-126244347D01*
X110310804Y-126244347D02*
X110548899Y-126363395D01*
X110548899Y-126363395D02*
X110667946Y-126482442D01*
X110667946Y-126482442D02*
X110786994Y-126720538D01*
X110786994Y-126720538D02*
X110786994Y-127077680D01*
X110786994Y-127077680D02*
X110667946Y-127315776D01*
X110667946Y-127315776D02*
X110548899Y-127434823D01*
X110548899Y-127434823D02*
X110310804Y-127553871D01*
X110310804Y-127553871D02*
X109358423Y-127553871D01*
X113406042Y-126244347D02*
X114239375Y-128744347D01*
X114239375Y-128744347D02*
X115072708Y-126244347D01*
X117215565Y-128744347D02*
X115786994Y-128744347D01*
X116501280Y-128744347D02*
X116501280Y-126244347D01*
X116501280Y-126244347D02*
X116263184Y-126601490D01*
X116263184Y-126601490D02*
X116025089Y-126839585D01*
X116025089Y-126839585D02*
X115786994Y-126958633D01*
D10*
X84695360Y-138191419D02*
X84885836Y-138191419D01*
X84885836Y-138191419D02*
X84981074Y-138239038D01*
X84981074Y-138239038D02*
X85076312Y-138334276D01*
X85076312Y-138334276D02*
X85123931Y-138524752D01*
X85123931Y-138524752D02*
X85123931Y-138858085D01*
X85123931Y-138858085D02*
X85076312Y-139048561D01*
X85076312Y-139048561D02*
X84981074Y-139143800D01*
X84981074Y-139143800D02*
X84885836Y-139191419D01*
X84885836Y-139191419D02*
X84695360Y-139191419D01*
X84695360Y-139191419D02*
X84600122Y-139143800D01*
X84600122Y-139143800D02*
X84504884Y-139048561D01*
X84504884Y-139048561D02*
X84457265Y-138858085D01*
X84457265Y-138858085D02*
X84457265Y-138524752D01*
X84457265Y-138524752D02*
X84504884Y-138334276D01*
X84504884Y-138334276D02*
X84600122Y-138239038D01*
X84600122Y-138239038D02*
X84695360Y-138191419D01*
X86028693Y-139191419D02*
X85552503Y-139191419D01*
X85552503Y-139191419D02*
X85552503Y-138191419D01*
X86362027Y-138667609D02*
X86695360Y-138667609D01*
X86838217Y-139191419D02*
X86362027Y-139191419D01*
X86362027Y-139191419D02*
X86362027Y-138191419D01*
X86362027Y-138191419D02*
X86838217Y-138191419D01*
X87266789Y-139191419D02*
X87266789Y-138191419D01*
X87266789Y-138191419D02*
X87504884Y-138191419D01*
X87504884Y-138191419D02*
X87647741Y-138239038D01*
X87647741Y-138239038D02*
X87742979Y-138334276D01*
X87742979Y-138334276D02*
X87790598Y-138429514D01*
X87790598Y-138429514D02*
X87838217Y-138619990D01*
X87838217Y-138619990D02*
X87838217Y-138762847D01*
X87838217Y-138762847D02*
X87790598Y-138953323D01*
X87790598Y-138953323D02*
X87742979Y-139048561D01*
X87742979Y-139048561D02*
X87647741Y-139143800D01*
X87647741Y-139143800D02*
X87504884Y-139191419D01*
X87504884Y-139191419D02*
X87266789Y-139191419D01*
X88981075Y-139143800D02*
X89123932Y-139191419D01*
X89123932Y-139191419D02*
X89362027Y-139191419D01*
X89362027Y-139191419D02*
X89457265Y-139143800D01*
X89457265Y-139143800D02*
X89504884Y-139096180D01*
X89504884Y-139096180D02*
X89552503Y-139000942D01*
X89552503Y-139000942D02*
X89552503Y-138905704D01*
X89552503Y-138905704D02*
X89504884Y-138810466D01*
X89504884Y-138810466D02*
X89457265Y-138762847D01*
X89457265Y-138762847D02*
X89362027Y-138715228D01*
X89362027Y-138715228D02*
X89171551Y-138667609D01*
X89171551Y-138667609D02*
X89076313Y-138619990D01*
X89076313Y-138619990D02*
X89028694Y-138572371D01*
X89028694Y-138572371D02*
X88981075Y-138477133D01*
X88981075Y-138477133D02*
X88981075Y-138381895D01*
X88981075Y-138381895D02*
X89028694Y-138286657D01*
X89028694Y-138286657D02*
X89076313Y-138239038D01*
X89076313Y-138239038D02*
X89171551Y-138191419D01*
X89171551Y-138191419D02*
X89409646Y-138191419D01*
X89409646Y-138191419D02*
X89552503Y-138239038D01*
X90552503Y-139096180D02*
X90504884Y-139143800D01*
X90504884Y-139143800D02*
X90362027Y-139191419D01*
X90362027Y-139191419D02*
X90266789Y-139191419D01*
X90266789Y-139191419D02*
X90123932Y-139143800D01*
X90123932Y-139143800D02*
X90028694Y-139048561D01*
X90028694Y-139048561D02*
X89981075Y-138953323D01*
X89981075Y-138953323D02*
X89933456Y-138762847D01*
X89933456Y-138762847D02*
X89933456Y-138619990D01*
X89933456Y-138619990D02*
X89981075Y-138429514D01*
X89981075Y-138429514D02*
X90028694Y-138334276D01*
X90028694Y-138334276D02*
X90123932Y-138239038D01*
X90123932Y-138239038D02*
X90266789Y-138191419D01*
X90266789Y-138191419D02*
X90362027Y-138191419D01*
X90362027Y-138191419D02*
X90504884Y-138239038D01*
X90504884Y-138239038D02*
X90552503Y-138286657D01*
X91552503Y-139191419D02*
X91219170Y-138715228D01*
X90981075Y-139191419D02*
X90981075Y-138191419D01*
X90981075Y-138191419D02*
X91362027Y-138191419D01*
X91362027Y-138191419D02*
X91457265Y-138239038D01*
X91457265Y-138239038D02*
X91504884Y-138286657D01*
X91504884Y-138286657D02*
X91552503Y-138381895D01*
X91552503Y-138381895D02*
X91552503Y-138524752D01*
X91552503Y-138524752D02*
X91504884Y-138619990D01*
X91504884Y-138619990D02*
X91457265Y-138667609D01*
X91457265Y-138667609D02*
X91362027Y-138715228D01*
X91362027Y-138715228D02*
X90981075Y-138715228D01*
X91981075Y-138667609D02*
X92314408Y-138667609D01*
X92457265Y-139191419D02*
X91981075Y-139191419D01*
X91981075Y-139191419D02*
X91981075Y-138191419D01*
X91981075Y-138191419D02*
X92457265Y-138191419D01*
X92885837Y-138667609D02*
X93219170Y-138667609D01*
X93362027Y-139191419D02*
X92885837Y-139191419D01*
X92885837Y-139191419D02*
X92885837Y-138191419D01*
X92885837Y-138191419D02*
X93362027Y-138191419D01*
X93790599Y-139191419D02*
X93790599Y-138191419D01*
X93790599Y-138191419D02*
X94362027Y-139191419D01*
X94362027Y-139191419D02*
X94362027Y-138191419D01*
D13*
X87126796Y-133312866D02*
X87126796Y-131912866D01*
X87126796Y-131912866D02*
X87460129Y-131912866D01*
X87460129Y-131912866D02*
X87660129Y-131979533D01*
X87660129Y-131979533D02*
X87793463Y-132112866D01*
X87793463Y-132112866D02*
X87860129Y-132246200D01*
X87860129Y-132246200D02*
X87926796Y-132512866D01*
X87926796Y-132512866D02*
X87926796Y-132712866D01*
X87926796Y-132712866D02*
X87860129Y-132979533D01*
X87860129Y-132979533D02*
X87793463Y-133112866D01*
X87793463Y-133112866D02*
X87660129Y-133246200D01*
X87660129Y-133246200D02*
X87460129Y-133312866D01*
X87460129Y-133312866D02*
X87126796Y-133312866D01*
X89126796Y-132379533D02*
X89126796Y-133312866D01*
X88526796Y-132379533D02*
X88526796Y-133112866D01*
X88526796Y-133112866D02*
X88593463Y-133246200D01*
X88593463Y-133246200D02*
X88726796Y-133312866D01*
X88726796Y-133312866D02*
X88926796Y-133312866D01*
X88926796Y-133312866D02*
X89060129Y-133246200D01*
X89060129Y-133246200D02*
X89126796Y-133179533D01*
X90393463Y-133246200D02*
X90260130Y-133312866D01*
X90260130Y-133312866D02*
X89993463Y-133312866D01*
X89993463Y-133312866D02*
X89860130Y-133246200D01*
X89860130Y-133246200D02*
X89793463Y-133179533D01*
X89793463Y-133179533D02*
X89726796Y-133046200D01*
X89726796Y-133046200D02*
X89726796Y-132646200D01*
X89726796Y-132646200D02*
X89793463Y-132512866D01*
X89793463Y-132512866D02*
X89860130Y-132446200D01*
X89860130Y-132446200D02*
X89993463Y-132379533D01*
X89993463Y-132379533D02*
X90260130Y-132379533D01*
X90260130Y-132379533D02*
X90393463Y-132446200D01*
X90993463Y-133312866D02*
X90993463Y-131912866D01*
X91126796Y-132779533D02*
X91526796Y-133312866D01*
X91526796Y-132379533D02*
X90993463Y-132912866D01*
X91993463Y-132379533D02*
X92326796Y-133312866D01*
X92660129Y-132379533D02*
X92326796Y-133312866D01*
X92326796Y-133312866D02*
X92193463Y-133646200D01*
X92193463Y-133646200D02*
X92126796Y-133712866D01*
X92126796Y-133712866D02*
X91993463Y-133779533D01*
X93660130Y-132579533D02*
X93860130Y-132646200D01*
X93860130Y-132646200D02*
X93926796Y-132712866D01*
X93926796Y-132712866D02*
X93993463Y-132846200D01*
X93993463Y-132846200D02*
X93993463Y-133046200D01*
X93993463Y-133046200D02*
X93926796Y-133179533D01*
X93926796Y-133179533D02*
X93860130Y-133246200D01*
X93860130Y-133246200D02*
X93726796Y-133312866D01*
X93726796Y-133312866D02*
X93193463Y-133312866D01*
X93193463Y-133312866D02*
X93193463Y-131912866D01*
X93193463Y-131912866D02*
X93660130Y-131912866D01*
X93660130Y-131912866D02*
X93793463Y-131979533D01*
X93793463Y-131979533D02*
X93860130Y-132046200D01*
X93860130Y-132046200D02*
X93926796Y-132179533D01*
X93926796Y-132179533D02*
X93926796Y-132312866D01*
X93926796Y-132312866D02*
X93860130Y-132446200D01*
X93860130Y-132446200D02*
X93793463Y-132512866D01*
X93793463Y-132512866D02*
X93660130Y-132579533D01*
X93660130Y-132579533D02*
X93193463Y-132579533D01*
X94793463Y-133312866D02*
X94660130Y-133246200D01*
X94660130Y-133246200D02*
X94593463Y-133179533D01*
X94593463Y-133179533D02*
X94526796Y-133046200D01*
X94526796Y-133046200D02*
X94526796Y-132646200D01*
X94526796Y-132646200D02*
X94593463Y-132512866D01*
X94593463Y-132512866D02*
X94660130Y-132446200D01*
X94660130Y-132446200D02*
X94793463Y-132379533D01*
X94793463Y-132379533D02*
X94993463Y-132379533D01*
X94993463Y-132379533D02*
X95126796Y-132446200D01*
X95126796Y-132446200D02*
X95193463Y-132512866D01*
X95193463Y-132512866D02*
X95260130Y-132646200D01*
X95260130Y-132646200D02*
X95260130Y-133046200D01*
X95260130Y-133046200D02*
X95193463Y-133179533D01*
X95193463Y-133179533D02*
X95126796Y-133246200D01*
X95126796Y-133246200D02*
X94993463Y-133312866D01*
X94993463Y-133312866D02*
X94793463Y-133312866D01*
X95860130Y-133312866D02*
X95860130Y-132379533D01*
X95860130Y-131912866D02*
X95793463Y-131979533D01*
X95793463Y-131979533D02*
X95860130Y-132046200D01*
X95860130Y-132046200D02*
X95926797Y-131979533D01*
X95926797Y-131979533D02*
X95860130Y-131912866D01*
X95860130Y-131912866D02*
X95860130Y-132046200D01*
X96193464Y-133446200D02*
X97260130Y-133446200D01*
X97460131Y-131912866D02*
X98393464Y-133312866D01*
X98393464Y-131912866D02*
X97460131Y-133312866D01*
X98926797Y-133312866D02*
X98926797Y-131912866D01*
X98926797Y-131912866D02*
X99260130Y-131912866D01*
X99260130Y-131912866D02*
X99460130Y-131979533D01*
X99460130Y-131979533D02*
X99593464Y-132112866D01*
X99593464Y-132112866D02*
X99660130Y-132246200D01*
X99660130Y-132246200D02*
X99726797Y-132512866D01*
X99726797Y-132512866D02*
X99726797Y-132712866D01*
X99726797Y-132712866D02*
X99660130Y-132979533D01*
X99660130Y-132979533D02*
X99593464Y-133112866D01*
X99593464Y-133112866D02*
X99460130Y-133246200D01*
X99460130Y-133246200D02*
X99260130Y-133312866D01*
X99260130Y-133312866D02*
X98926797Y-133312866D01*
X101393464Y-132779533D02*
X102460131Y-132779533D01*
X104193464Y-133312866D02*
X104193464Y-131912866D01*
X104193464Y-131912866D02*
X104526797Y-131912866D01*
X104526797Y-131912866D02*
X104726797Y-131979533D01*
X104726797Y-131979533D02*
X104860131Y-132112866D01*
X104860131Y-132112866D02*
X104926797Y-132246200D01*
X104926797Y-132246200D02*
X104993464Y-132512866D01*
X104993464Y-132512866D02*
X104993464Y-132712866D01*
X104993464Y-132712866D02*
X104926797Y-132979533D01*
X104926797Y-132979533D02*
X104860131Y-133112866D01*
X104860131Y-133112866D02*
X104726797Y-133246200D01*
X104726797Y-133246200D02*
X104526797Y-133312866D01*
X104526797Y-133312866D02*
X104193464Y-133312866D01*
X106193464Y-132379533D02*
X106193464Y-133312866D01*
X105593464Y-132379533D02*
X105593464Y-133112866D01*
X105593464Y-133112866D02*
X105660131Y-133246200D01*
X105660131Y-133246200D02*
X105793464Y-133312866D01*
X105793464Y-133312866D02*
X105993464Y-133312866D01*
X105993464Y-133312866D02*
X106126797Y-133246200D01*
X106126797Y-133246200D02*
X106193464Y-133179533D01*
X107460131Y-133246200D02*
X107326798Y-133312866D01*
X107326798Y-133312866D02*
X107060131Y-133312866D01*
X107060131Y-133312866D02*
X106926798Y-133246200D01*
X106926798Y-133246200D02*
X106860131Y-133179533D01*
X106860131Y-133179533D02*
X106793464Y-133046200D01*
X106793464Y-133046200D02*
X106793464Y-132646200D01*
X106793464Y-132646200D02*
X106860131Y-132512866D01*
X106860131Y-132512866D02*
X106926798Y-132446200D01*
X106926798Y-132446200D02*
X107060131Y-132379533D01*
X107060131Y-132379533D02*
X107326798Y-132379533D01*
X107326798Y-132379533D02*
X107460131Y-132446200D01*
X108060131Y-133312866D02*
X108060131Y-131912866D01*
X108193464Y-132779533D02*
X108593464Y-133312866D01*
X108593464Y-132379533D02*
X108060131Y-132912866D01*
X109060131Y-132379533D02*
X109393464Y-133312866D01*
X109726797Y-132379533D02*
X109393464Y-133312866D01*
X109393464Y-133312866D02*
X109260131Y-133646200D01*
X109260131Y-133646200D02*
X109193464Y-133712866D01*
X109193464Y-133712866D02*
X109060131Y-133779533D01*
X110726798Y-132579533D02*
X110926798Y-132646200D01*
X110926798Y-132646200D02*
X110993464Y-132712866D01*
X110993464Y-132712866D02*
X111060131Y-132846200D01*
X111060131Y-132846200D02*
X111060131Y-133046200D01*
X111060131Y-133046200D02*
X110993464Y-133179533D01*
X110993464Y-133179533D02*
X110926798Y-133246200D01*
X110926798Y-133246200D02*
X110793464Y-133312866D01*
X110793464Y-133312866D02*
X110260131Y-133312866D01*
X110260131Y-133312866D02*
X110260131Y-131912866D01*
X110260131Y-131912866D02*
X110726798Y-131912866D01*
X110726798Y-131912866D02*
X110860131Y-131979533D01*
X110860131Y-131979533D02*
X110926798Y-132046200D01*
X110926798Y-132046200D02*
X110993464Y-132179533D01*
X110993464Y-132179533D02*
X110993464Y-132312866D01*
X110993464Y-132312866D02*
X110926798Y-132446200D01*
X110926798Y-132446200D02*
X110860131Y-132512866D01*
X110860131Y-132512866D02*
X110726798Y-132579533D01*
X110726798Y-132579533D02*
X110260131Y-132579533D01*
X111860131Y-133312866D02*
X111726798Y-133246200D01*
X111726798Y-133246200D02*
X111660131Y-133179533D01*
X111660131Y-133179533D02*
X111593464Y-133046200D01*
X111593464Y-133046200D02*
X111593464Y-132646200D01*
X111593464Y-132646200D02*
X111660131Y-132512866D01*
X111660131Y-132512866D02*
X111726798Y-132446200D01*
X111726798Y-132446200D02*
X111860131Y-132379533D01*
X111860131Y-132379533D02*
X112060131Y-132379533D01*
X112060131Y-132379533D02*
X112193464Y-132446200D01*
X112193464Y-132446200D02*
X112260131Y-132512866D01*
X112260131Y-132512866D02*
X112326798Y-132646200D01*
X112326798Y-132646200D02*
X112326798Y-133046200D01*
X112326798Y-133046200D02*
X112260131Y-133179533D01*
X112260131Y-133179533D02*
X112193464Y-133246200D01*
X112193464Y-133246200D02*
X112060131Y-133312866D01*
X112060131Y-133312866D02*
X111860131Y-133312866D01*
X112926798Y-133312866D02*
X112926798Y-132379533D01*
X112926798Y-131912866D02*
X112860131Y-131979533D01*
X112860131Y-131979533D02*
X112926798Y-132046200D01*
X112926798Y-132046200D02*
X112993465Y-131979533D01*
X112993465Y-131979533D02*
X112926798Y-131912866D01*
X112926798Y-131912866D02*
X112926798Y-132046200D01*
X113260132Y-133446200D02*
X114326798Y-133446200D01*
X114660132Y-133312866D02*
X114660132Y-131912866D01*
X114660132Y-131912866D02*
X114993465Y-131912866D01*
X114993465Y-131912866D02*
X115193465Y-131979533D01*
X115193465Y-131979533D02*
X115326799Y-132112866D01*
X115326799Y-132112866D02*
X115393465Y-132246200D01*
X115393465Y-132246200D02*
X115460132Y-132512866D01*
X115460132Y-132512866D02*
X115460132Y-132712866D01*
X115460132Y-132712866D02*
X115393465Y-132979533D01*
X115393465Y-132979533D02*
X115326799Y-133112866D01*
X115326799Y-133112866D02*
X115193465Y-133246200D01*
X115193465Y-133246200D02*
X114993465Y-133312866D01*
X114993465Y-133312866D02*
X114660132Y-133312866D01*
X116060132Y-133312866D02*
X116060132Y-131912866D01*
X116860132Y-133312866D02*
X116260132Y-132512866D01*
X116860132Y-131912866D02*
X116060132Y-132712866D01*
D11*
X104531565Y-109696136D02*
X104483946Y-109743756D01*
X104483946Y-109743756D02*
X104341089Y-109791375D01*
X104341089Y-109791375D02*
X104245851Y-109791375D01*
X104245851Y-109791375D02*
X104102994Y-109743756D01*
X104102994Y-109743756D02*
X104007756Y-109648517D01*
X104007756Y-109648517D02*
X103960137Y-109553279D01*
X103960137Y-109553279D02*
X103912518Y-109362803D01*
X103912518Y-109362803D02*
X103912518Y-109219946D01*
X103912518Y-109219946D02*
X103960137Y-109029470D01*
X103960137Y-109029470D02*
X104007756Y-108934232D01*
X104007756Y-108934232D02*
X104102994Y-108838994D01*
X104102994Y-108838994D02*
X104245851Y-108791375D01*
X104245851Y-108791375D02*
X104341089Y-108791375D01*
X104341089Y-108791375D02*
X104483946Y-108838994D01*
X104483946Y-108838994D02*
X104531565Y-108886613D01*
X104960137Y-109410422D02*
X105722042Y-109410422D01*
X106722041Y-109791375D02*
X106150613Y-109791375D01*
X106436327Y-109791375D02*
X106436327Y-108791375D01*
X106436327Y-108791375D02*
X106341089Y-108934232D01*
X106341089Y-108934232D02*
X106245851Y-109029470D01*
X106245851Y-109029470D02*
X106150613Y-109077089D01*
X107341089Y-108791375D02*
X107436327Y-108791375D01*
X107436327Y-108791375D02*
X107531565Y-108838994D01*
X107531565Y-108838994D02*
X107579184Y-108886613D01*
X107579184Y-108886613D02*
X107626803Y-108981851D01*
X107626803Y-108981851D02*
X107674422Y-109172327D01*
X107674422Y-109172327D02*
X107674422Y-109410422D01*
X107674422Y-109410422D02*
X107626803Y-109600898D01*
X107626803Y-109600898D02*
X107579184Y-109696136D01*
X107579184Y-109696136D02*
X107531565Y-109743756D01*
X107531565Y-109743756D02*
X107436327Y-109791375D01*
X107436327Y-109791375D02*
X107341089Y-109791375D01*
X107341089Y-109791375D02*
X107245851Y-109743756D01*
X107245851Y-109743756D02*
X107198232Y-109696136D01*
X107198232Y-109696136D02*
X107150613Y-109600898D01*
X107150613Y-109600898D02*
X107102994Y-109410422D01*
X107102994Y-109410422D02*
X107102994Y-109172327D01*
X107102994Y-109172327D02*
X107150613Y-108981851D01*
X107150613Y-108981851D02*
X107198232Y-108886613D01*
X107198232Y-108886613D02*
X107245851Y-108838994D01*
X107245851Y-108838994D02*
X107341089Y-108791375D01*
X108102994Y-109410422D02*
X108864899Y-109410422D01*
X108483946Y-109791375D02*
X108483946Y-109029470D01*
X109341089Y-109410422D02*
X110102994Y-109410422D01*
X111007755Y-109124708D02*
X111007755Y-109791375D01*
X110769660Y-108743756D02*
X110531565Y-109458041D01*
X110531565Y-109458041D02*
X111150612Y-109458041D01*
X107980921Y-97438380D02*
X107933302Y-97486000D01*
X107933302Y-97486000D02*
X107790445Y-97533619D01*
X107790445Y-97533619D02*
X107695207Y-97533619D01*
X107695207Y-97533619D02*
X107552350Y-97486000D01*
X107552350Y-97486000D02*
X107457112Y-97390761D01*
X107457112Y-97390761D02*
X107409493Y-97295523D01*
X107409493Y-97295523D02*
X107361874Y-97105047D01*
X107361874Y-97105047D02*
X107361874Y-96962190D01*
X107361874Y-96962190D02*
X107409493Y-96771714D01*
X107409493Y-96771714D02*
X107457112Y-96676476D01*
X107457112Y-96676476D02*
X107552350Y-96581238D01*
X107552350Y-96581238D02*
X107695207Y-96533619D01*
X107695207Y-96533619D02*
X107790445Y-96533619D01*
X107790445Y-96533619D02*
X107933302Y-96581238D01*
X107933302Y-96581238D02*
X107980921Y-96628857D01*
X108409493Y-97152666D02*
X109171398Y-97152666D01*
X110171397Y-97533619D02*
X109599969Y-97533619D01*
X109885683Y-97533619D02*
X109885683Y-96533619D01*
X109885683Y-96533619D02*
X109790445Y-96676476D01*
X109790445Y-96676476D02*
X109695207Y-96771714D01*
X109695207Y-96771714D02*
X109599969Y-96819333D01*
X110790445Y-96533619D02*
X110885683Y-96533619D01*
X110885683Y-96533619D02*
X110980921Y-96581238D01*
X110980921Y-96581238D02*
X111028540Y-96628857D01*
X111028540Y-96628857D02*
X111076159Y-96724095D01*
X111076159Y-96724095D02*
X111123778Y-96914571D01*
X111123778Y-96914571D02*
X111123778Y-97152666D01*
X111123778Y-97152666D02*
X111076159Y-97343142D01*
X111076159Y-97343142D02*
X111028540Y-97438380D01*
X111028540Y-97438380D02*
X110980921Y-97486000D01*
X110980921Y-97486000D02*
X110885683Y-97533619D01*
X110885683Y-97533619D02*
X110790445Y-97533619D01*
X110790445Y-97533619D02*
X110695207Y-97486000D01*
X110695207Y-97486000D02*
X110647588Y-97438380D01*
X110647588Y-97438380D02*
X110599969Y-97343142D01*
X110599969Y-97343142D02*
X110552350Y-97152666D01*
X110552350Y-97152666D02*
X110552350Y-96914571D01*
X110552350Y-96914571D02*
X110599969Y-96724095D01*
X110599969Y-96724095D02*
X110647588Y-96628857D01*
X110647588Y-96628857D02*
X110695207Y-96581238D01*
X110695207Y-96581238D02*
X110790445Y-96533619D01*
X111552350Y-97152666D02*
X112314255Y-97152666D01*
X111933302Y-97533619D02*
X111933302Y-96771714D01*
X112790445Y-97152666D02*
X113552350Y-97152666D01*
X113933302Y-96533619D02*
X114552349Y-96533619D01*
X114552349Y-96533619D02*
X114219016Y-96914571D01*
X114219016Y-96914571D02*
X114361873Y-96914571D01*
X114361873Y-96914571D02*
X114457111Y-96962190D01*
X114457111Y-96962190D02*
X114504730Y-97009809D01*
X114504730Y-97009809D02*
X114552349Y-97105047D01*
X114552349Y-97105047D02*
X114552349Y-97343142D01*
X114552349Y-97343142D02*
X114504730Y-97438380D01*
X114504730Y-97438380D02*
X114457111Y-97486000D01*
X114457111Y-97486000D02*
X114361873Y-97533619D01*
X114361873Y-97533619D02*
X114076159Y-97533619D01*
X114076159Y-97533619D02*
X113980921Y-97486000D01*
X113980921Y-97486000D02*
X113933302Y-97438380D01*
X112492209Y-87420693D02*
X112444590Y-87468313D01*
X112444590Y-87468313D02*
X112301733Y-87515932D01*
X112301733Y-87515932D02*
X112206495Y-87515932D01*
X112206495Y-87515932D02*
X112063638Y-87468313D01*
X112063638Y-87468313D02*
X111968400Y-87373074D01*
X111968400Y-87373074D02*
X111920781Y-87277836D01*
X111920781Y-87277836D02*
X111873162Y-87087360D01*
X111873162Y-87087360D02*
X111873162Y-86944503D01*
X111873162Y-86944503D02*
X111920781Y-86754027D01*
X111920781Y-86754027D02*
X111968400Y-86658789D01*
X111968400Y-86658789D02*
X112063638Y-86563551D01*
X112063638Y-86563551D02*
X112206495Y-86515932D01*
X112206495Y-86515932D02*
X112301733Y-86515932D01*
X112301733Y-86515932D02*
X112444590Y-86563551D01*
X112444590Y-86563551D02*
X112492209Y-86611170D01*
X112920781Y-87134979D02*
X113682686Y-87134979D01*
X114682685Y-87515932D02*
X114111257Y-87515932D01*
X114396971Y-87515932D02*
X114396971Y-86515932D01*
X114396971Y-86515932D02*
X114301733Y-86658789D01*
X114301733Y-86658789D02*
X114206495Y-86754027D01*
X114206495Y-86754027D02*
X114111257Y-86801646D01*
X115301733Y-86515932D02*
X115396971Y-86515932D01*
X115396971Y-86515932D02*
X115492209Y-86563551D01*
X115492209Y-86563551D02*
X115539828Y-86611170D01*
X115539828Y-86611170D02*
X115587447Y-86706408D01*
X115587447Y-86706408D02*
X115635066Y-86896884D01*
X115635066Y-86896884D02*
X115635066Y-87134979D01*
X115635066Y-87134979D02*
X115587447Y-87325455D01*
X115587447Y-87325455D02*
X115539828Y-87420693D01*
X115539828Y-87420693D02*
X115492209Y-87468313D01*
X115492209Y-87468313D02*
X115396971Y-87515932D01*
X115396971Y-87515932D02*
X115301733Y-87515932D01*
X115301733Y-87515932D02*
X115206495Y-87468313D01*
X115206495Y-87468313D02*
X115158876Y-87420693D01*
X115158876Y-87420693D02*
X115111257Y-87325455D01*
X115111257Y-87325455D02*
X115063638Y-87134979D01*
X115063638Y-87134979D02*
X115063638Y-86896884D01*
X115063638Y-86896884D02*
X115111257Y-86706408D01*
X115111257Y-86706408D02*
X115158876Y-86611170D01*
X115158876Y-86611170D02*
X115206495Y-86563551D01*
X115206495Y-86563551D02*
X115301733Y-86515932D01*
X116063638Y-87134979D02*
X116825543Y-87134979D01*
X116444590Y-87515932D02*
X116444590Y-86754027D01*
X117301733Y-87134979D02*
X118063638Y-87134979D01*
X119063637Y-87515932D02*
X118492209Y-87515932D01*
X118777923Y-87515932D02*
X118777923Y-86515932D01*
X118777923Y-86515932D02*
X118682685Y-86658789D01*
X118682685Y-86658789D02*
X118587447Y-86754027D01*
X118587447Y-86754027D02*
X118492209Y-86801646D01*
X44461466Y-111723980D02*
X44413847Y-111771600D01*
X44413847Y-111771600D02*
X44270990Y-111819219D01*
X44270990Y-111819219D02*
X44175752Y-111819219D01*
X44175752Y-111819219D02*
X44032895Y-111771600D01*
X44032895Y-111771600D02*
X43937657Y-111676361D01*
X43937657Y-111676361D02*
X43890038Y-111581123D01*
X43890038Y-111581123D02*
X43842419Y-111390647D01*
X43842419Y-111390647D02*
X43842419Y-111247790D01*
X43842419Y-111247790D02*
X43890038Y-111057314D01*
X43890038Y-111057314D02*
X43937657Y-110962076D01*
X43937657Y-110962076D02*
X44032895Y-110866838D01*
X44032895Y-110866838D02*
X44175752Y-110819219D01*
X44175752Y-110819219D02*
X44270990Y-110819219D01*
X44270990Y-110819219D02*
X44413847Y-110866838D01*
X44413847Y-110866838D02*
X44461466Y-110914457D01*
X44890038Y-111438266D02*
X45651943Y-111438266D01*
X46651942Y-111819219D02*
X46080514Y-111819219D01*
X46366228Y-111819219D02*
X46366228Y-110819219D01*
X46366228Y-110819219D02*
X46270990Y-110962076D01*
X46270990Y-110962076D02*
X46175752Y-111057314D01*
X46175752Y-111057314D02*
X46080514Y-111104933D01*
X47270990Y-110819219D02*
X47366228Y-110819219D01*
X47366228Y-110819219D02*
X47461466Y-110866838D01*
X47461466Y-110866838D02*
X47509085Y-110914457D01*
X47509085Y-110914457D02*
X47556704Y-111009695D01*
X47556704Y-111009695D02*
X47604323Y-111200171D01*
X47604323Y-111200171D02*
X47604323Y-111438266D01*
X47604323Y-111438266D02*
X47556704Y-111628742D01*
X47556704Y-111628742D02*
X47509085Y-111723980D01*
X47509085Y-111723980D02*
X47461466Y-111771600D01*
X47461466Y-111771600D02*
X47366228Y-111819219D01*
X47366228Y-111819219D02*
X47270990Y-111819219D01*
X47270990Y-111819219D02*
X47175752Y-111771600D01*
X47175752Y-111771600D02*
X47128133Y-111723980D01*
X47128133Y-111723980D02*
X47080514Y-111628742D01*
X47080514Y-111628742D02*
X47032895Y-111438266D01*
X47032895Y-111438266D02*
X47032895Y-111200171D01*
X47032895Y-111200171D02*
X47080514Y-111009695D01*
X47080514Y-111009695D02*
X47128133Y-110914457D01*
X47128133Y-110914457D02*
X47175752Y-110866838D01*
X47175752Y-110866838D02*
X47270990Y-110819219D01*
X48223371Y-110819219D02*
X48318609Y-110819219D01*
X48318609Y-110819219D02*
X48413847Y-110866838D01*
X48413847Y-110866838D02*
X48461466Y-110914457D01*
X48461466Y-110914457D02*
X48509085Y-111009695D01*
X48509085Y-111009695D02*
X48556704Y-111200171D01*
X48556704Y-111200171D02*
X48556704Y-111438266D01*
X48556704Y-111438266D02*
X48509085Y-111628742D01*
X48509085Y-111628742D02*
X48461466Y-111723980D01*
X48461466Y-111723980D02*
X48413847Y-111771600D01*
X48413847Y-111771600D02*
X48318609Y-111819219D01*
X48318609Y-111819219D02*
X48223371Y-111819219D01*
X48223371Y-111819219D02*
X48128133Y-111771600D01*
X48128133Y-111771600D02*
X48080514Y-111723980D01*
X48080514Y-111723980D02*
X48032895Y-111628742D01*
X48032895Y-111628742D02*
X47985276Y-111438266D01*
X47985276Y-111438266D02*
X47985276Y-111200171D01*
X47985276Y-111200171D02*
X48032895Y-111009695D01*
X48032895Y-111009695D02*
X48080514Y-110914457D01*
X48080514Y-110914457D02*
X48128133Y-110866838D01*
X48128133Y-110866838D02*
X48223371Y-110819219D01*
X48985276Y-111438266D02*
X49747181Y-111438266D01*
X50175752Y-110914457D02*
X50223371Y-110866838D01*
X50223371Y-110866838D02*
X50318609Y-110819219D01*
X50318609Y-110819219D02*
X50556704Y-110819219D01*
X50556704Y-110819219D02*
X50651942Y-110866838D01*
X50651942Y-110866838D02*
X50699561Y-110914457D01*
X50699561Y-110914457D02*
X50747180Y-111009695D01*
X50747180Y-111009695D02*
X50747180Y-111104933D01*
X50747180Y-111104933D02*
X50699561Y-111247790D01*
X50699561Y-111247790D02*
X50128133Y-111819219D01*
X50128133Y-111819219D02*
X50747180Y-111819219D01*
X52030666Y-111673180D02*
X51983047Y-111720800D01*
X51983047Y-111720800D02*
X51840190Y-111768419D01*
X51840190Y-111768419D02*
X51744952Y-111768419D01*
X51744952Y-111768419D02*
X51602095Y-111720800D01*
X51602095Y-111720800D02*
X51506857Y-111625561D01*
X51506857Y-111625561D02*
X51459238Y-111530323D01*
X51459238Y-111530323D02*
X51411619Y-111339847D01*
X51411619Y-111339847D02*
X51411619Y-111196990D01*
X51411619Y-111196990D02*
X51459238Y-111006514D01*
X51459238Y-111006514D02*
X51506857Y-110911276D01*
X51506857Y-110911276D02*
X51602095Y-110816038D01*
X51602095Y-110816038D02*
X51744952Y-110768419D01*
X51744952Y-110768419D02*
X51840190Y-110768419D01*
X51840190Y-110768419D02*
X51983047Y-110816038D01*
X51983047Y-110816038D02*
X52030666Y-110863657D01*
X52459238Y-111387466D02*
X53221143Y-111387466D01*
X54221142Y-111768419D02*
X53649714Y-111768419D01*
X53935428Y-111768419D02*
X53935428Y-110768419D01*
X53935428Y-110768419D02*
X53840190Y-110911276D01*
X53840190Y-110911276D02*
X53744952Y-111006514D01*
X53744952Y-111006514D02*
X53649714Y-111054133D01*
X54840190Y-110768419D02*
X54935428Y-110768419D01*
X54935428Y-110768419D02*
X55030666Y-110816038D01*
X55030666Y-110816038D02*
X55078285Y-110863657D01*
X55078285Y-110863657D02*
X55125904Y-110958895D01*
X55125904Y-110958895D02*
X55173523Y-111149371D01*
X55173523Y-111149371D02*
X55173523Y-111387466D01*
X55173523Y-111387466D02*
X55125904Y-111577942D01*
X55125904Y-111577942D02*
X55078285Y-111673180D01*
X55078285Y-111673180D02*
X55030666Y-111720800D01*
X55030666Y-111720800D02*
X54935428Y-111768419D01*
X54935428Y-111768419D02*
X54840190Y-111768419D01*
X54840190Y-111768419D02*
X54744952Y-111720800D01*
X54744952Y-111720800D02*
X54697333Y-111673180D01*
X54697333Y-111673180D02*
X54649714Y-111577942D01*
X54649714Y-111577942D02*
X54602095Y-111387466D01*
X54602095Y-111387466D02*
X54602095Y-111149371D01*
X54602095Y-111149371D02*
X54649714Y-110958895D01*
X54649714Y-110958895D02*
X54697333Y-110863657D01*
X54697333Y-110863657D02*
X54744952Y-110816038D01*
X54744952Y-110816038D02*
X54840190Y-110768419D01*
X55792571Y-110768419D02*
X55887809Y-110768419D01*
X55887809Y-110768419D02*
X55983047Y-110816038D01*
X55983047Y-110816038D02*
X56030666Y-110863657D01*
X56030666Y-110863657D02*
X56078285Y-110958895D01*
X56078285Y-110958895D02*
X56125904Y-111149371D01*
X56125904Y-111149371D02*
X56125904Y-111387466D01*
X56125904Y-111387466D02*
X56078285Y-111577942D01*
X56078285Y-111577942D02*
X56030666Y-111673180D01*
X56030666Y-111673180D02*
X55983047Y-111720800D01*
X55983047Y-111720800D02*
X55887809Y-111768419D01*
X55887809Y-111768419D02*
X55792571Y-111768419D01*
X55792571Y-111768419D02*
X55697333Y-111720800D01*
X55697333Y-111720800D02*
X55649714Y-111673180D01*
X55649714Y-111673180D02*
X55602095Y-111577942D01*
X55602095Y-111577942D02*
X55554476Y-111387466D01*
X55554476Y-111387466D02*
X55554476Y-111149371D01*
X55554476Y-111149371D02*
X55602095Y-110958895D01*
X55602095Y-110958895D02*
X55649714Y-110863657D01*
X55649714Y-110863657D02*
X55697333Y-110816038D01*
X55697333Y-110816038D02*
X55792571Y-110768419D01*
X56554476Y-111387466D02*
X57316381Y-111387466D01*
X58316380Y-111768419D02*
X57744952Y-111768419D01*
X58030666Y-111768419D02*
X58030666Y-110768419D01*
X58030666Y-110768419D02*
X57935428Y-110911276D01*
X57935428Y-110911276D02*
X57840190Y-111006514D01*
X57840190Y-111006514D02*
X57744952Y-111054133D01*
D14*
X57827295Y-88556246D02*
X58627295Y-88022912D01*
X57827295Y-88022912D02*
X58627295Y-88556246D01*
X58627295Y-87718150D02*
X57827295Y-87718150D01*
X58398723Y-87375294D02*
X58398723Y-86994341D01*
X58627295Y-87451484D02*
X57827295Y-87184817D01*
X57827295Y-87184817D02*
X58627295Y-86918151D01*
X57827295Y-86499103D02*
X57827295Y-86346722D01*
X57827295Y-86346722D02*
X57865390Y-86270532D01*
X57865390Y-86270532D02*
X57941580Y-86194341D01*
X57941580Y-86194341D02*
X58093961Y-86156246D01*
X58093961Y-86156246D02*
X58360628Y-86156246D01*
X58360628Y-86156246D02*
X58513009Y-86194341D01*
X58513009Y-86194341D02*
X58589200Y-86270532D01*
X58589200Y-86270532D02*
X58627295Y-86346722D01*
X58627295Y-86346722D02*
X58627295Y-86499103D01*
X58627295Y-86499103D02*
X58589200Y-86575294D01*
X58589200Y-86575294D02*
X58513009Y-86651484D01*
X58513009Y-86651484D02*
X58360628Y-86689580D01*
X58360628Y-86689580D02*
X58093961Y-86689580D01*
X58093961Y-86689580D02*
X57941580Y-86651484D01*
X57941580Y-86651484D02*
X57865390Y-86575294D01*
X57865390Y-86575294D02*
X57827295Y-86499103D01*
X58322533Y-85813389D02*
X58322533Y-85203866D01*
X58627295Y-84822913D02*
X57827295Y-84822913D01*
X58208247Y-84822913D02*
X58208247Y-84365770D01*
X58627295Y-84365770D02*
X57827295Y-84365770D01*
X58398723Y-84022914D02*
X58398723Y-83641961D01*
X58627295Y-84099104D02*
X57827295Y-83832437D01*
X57827295Y-83832437D02*
X58627295Y-83565771D01*
X58627295Y-82918152D02*
X58627295Y-83299104D01*
X58627295Y-83299104D02*
X57827295Y-83299104D01*
X58208247Y-82384819D02*
X58208247Y-82651485D01*
X58627295Y-82651485D02*
X57827295Y-82651485D01*
X57827295Y-82651485D02*
X57827295Y-82270533D01*
X58322533Y-81965771D02*
X58322533Y-81356248D01*
X58627295Y-80975295D02*
X57827295Y-80975295D01*
X58208247Y-80975295D02*
X58208247Y-80518152D01*
X58627295Y-80518152D02*
X57827295Y-80518152D01*
X57827295Y-79984819D02*
X57827295Y-79832438D01*
X57827295Y-79832438D02*
X57865390Y-79756248D01*
X57865390Y-79756248D02*
X57941580Y-79680057D01*
X57941580Y-79680057D02*
X58093961Y-79641962D01*
X58093961Y-79641962D02*
X58360628Y-79641962D01*
X58360628Y-79641962D02*
X58513009Y-79680057D01*
X58513009Y-79680057D02*
X58589200Y-79756248D01*
X58589200Y-79756248D02*
X58627295Y-79832438D01*
X58627295Y-79832438D02*
X58627295Y-79984819D01*
X58627295Y-79984819D02*
X58589200Y-80061010D01*
X58589200Y-80061010D02*
X58513009Y-80137200D01*
X58513009Y-80137200D02*
X58360628Y-80175296D01*
X58360628Y-80175296D02*
X58093961Y-80175296D01*
X58093961Y-80175296D02*
X57941580Y-80137200D01*
X57941580Y-80137200D02*
X57865390Y-80061010D01*
X57865390Y-80061010D02*
X57827295Y-79984819D01*
X58627295Y-78918153D02*
X58627295Y-79299105D01*
X58627295Y-79299105D02*
X57827295Y-79299105D01*
X58208247Y-78651486D02*
X58208247Y-78384820D01*
X58627295Y-78270534D02*
X58627295Y-78651486D01*
X58627295Y-78651486D02*
X57827295Y-78651486D01*
X57827295Y-78651486D02*
X57827295Y-78270534D01*
X58322533Y-77927676D02*
X58322533Y-77318153D01*
X57903485Y-76975296D02*
X57865390Y-76937200D01*
X57865390Y-76937200D02*
X57827295Y-76861010D01*
X57827295Y-76861010D02*
X57827295Y-76670534D01*
X57827295Y-76670534D02*
X57865390Y-76594343D01*
X57865390Y-76594343D02*
X57903485Y-76556248D01*
X57903485Y-76556248D02*
X57979676Y-76518153D01*
X57979676Y-76518153D02*
X58055866Y-76518153D01*
X58055866Y-76518153D02*
X58170152Y-76556248D01*
X58170152Y-76556248D02*
X58627295Y-77013391D01*
X58627295Y-77013391D02*
X58627295Y-76518153D01*
X57827295Y-76251486D02*
X57827295Y-75756248D01*
X57827295Y-75756248D02*
X58132057Y-76022914D01*
X58132057Y-76022914D02*
X58132057Y-75908629D01*
X58132057Y-75908629D02*
X58170152Y-75832438D01*
X58170152Y-75832438D02*
X58208247Y-75794343D01*
X58208247Y-75794343D02*
X58284438Y-75756248D01*
X58284438Y-75756248D02*
X58474914Y-75756248D01*
X58474914Y-75756248D02*
X58551104Y-75794343D01*
X58551104Y-75794343D02*
X58589200Y-75832438D01*
X58589200Y-75832438D02*
X58627295Y-75908629D01*
X58627295Y-75908629D02*
X58627295Y-76137200D01*
X58627295Y-76137200D02*
X58589200Y-76213391D01*
X58589200Y-76213391D02*
X58551104Y-76251486D01*
X58627295Y-75413390D02*
X57827295Y-75413390D01*
X57827295Y-75413390D02*
X57827295Y-75108628D01*
X57827295Y-75108628D02*
X57865390Y-75032438D01*
X57865390Y-75032438D02*
X57903485Y-74994343D01*
X57903485Y-74994343D02*
X57979676Y-74956247D01*
X57979676Y-74956247D02*
X58093961Y-74956247D01*
X58093961Y-74956247D02*
X58170152Y-74994343D01*
X58170152Y-74994343D02*
X58208247Y-75032438D01*
X58208247Y-75032438D02*
X58246342Y-75108628D01*
X58246342Y-75108628D02*
X58246342Y-75413390D01*
D11*
X125738400Y-104254132D02*
X125786019Y-104111275D01*
X125786019Y-104111275D02*
X125786019Y-103873180D01*
X125786019Y-103873180D02*
X125738400Y-103777942D01*
X125738400Y-103777942D02*
X125690780Y-103730323D01*
X125690780Y-103730323D02*
X125595542Y-103682704D01*
X125595542Y-103682704D02*
X125500304Y-103682704D01*
X125500304Y-103682704D02*
X125405066Y-103730323D01*
X125405066Y-103730323D02*
X125357447Y-103777942D01*
X125357447Y-103777942D02*
X125309828Y-103873180D01*
X125309828Y-103873180D02*
X125262209Y-104063656D01*
X125262209Y-104063656D02*
X125214590Y-104158894D01*
X125214590Y-104158894D02*
X125166971Y-104206513D01*
X125166971Y-104206513D02*
X125071733Y-104254132D01*
X125071733Y-104254132D02*
X124976495Y-104254132D01*
X124976495Y-104254132D02*
X124881257Y-104206513D01*
X124881257Y-104206513D02*
X124833638Y-104158894D01*
X124833638Y-104158894D02*
X124786019Y-104063656D01*
X124786019Y-104063656D02*
X124786019Y-103825561D01*
X124786019Y-103825561D02*
X124833638Y-103682704D01*
X124786019Y-103349370D02*
X125786019Y-103111275D01*
X125786019Y-103111275D02*
X125071733Y-102920799D01*
X125071733Y-102920799D02*
X125786019Y-102730323D01*
X125786019Y-102730323D02*
X124786019Y-102492228D01*
X124786019Y-102206513D02*
X124786019Y-101587466D01*
X124786019Y-101587466D02*
X125166971Y-101920799D01*
X125166971Y-101920799D02*
X125166971Y-101777942D01*
X125166971Y-101777942D02*
X125214590Y-101682704D01*
X125214590Y-101682704D02*
X125262209Y-101635085D01*
X125262209Y-101635085D02*
X125357447Y-101587466D01*
X125357447Y-101587466D02*
X125595542Y-101587466D01*
X125595542Y-101587466D02*
X125690780Y-101635085D01*
X125690780Y-101635085D02*
X125738400Y-101682704D01*
X125738400Y-101682704D02*
X125786019Y-101777942D01*
X125786019Y-101777942D02*
X125786019Y-102063656D01*
X125786019Y-102063656D02*
X125738400Y-102158894D01*
X125738400Y-102158894D02*
X125690780Y-102206513D01*
X112492209Y-74161893D02*
X112444590Y-74209513D01*
X112444590Y-74209513D02*
X112301733Y-74257132D01*
X112301733Y-74257132D02*
X112206495Y-74257132D01*
X112206495Y-74257132D02*
X112063638Y-74209513D01*
X112063638Y-74209513D02*
X111968400Y-74114274D01*
X111968400Y-74114274D02*
X111920781Y-74019036D01*
X111920781Y-74019036D02*
X111873162Y-73828560D01*
X111873162Y-73828560D02*
X111873162Y-73685703D01*
X111873162Y-73685703D02*
X111920781Y-73495227D01*
X111920781Y-73495227D02*
X111968400Y-73399989D01*
X111968400Y-73399989D02*
X112063638Y-73304751D01*
X112063638Y-73304751D02*
X112206495Y-73257132D01*
X112206495Y-73257132D02*
X112301733Y-73257132D01*
X112301733Y-73257132D02*
X112444590Y-73304751D01*
X112444590Y-73304751D02*
X112492209Y-73352370D01*
X112920781Y-73876179D02*
X113682686Y-73876179D01*
X114682685Y-74257132D02*
X114111257Y-74257132D01*
X114396971Y-74257132D02*
X114396971Y-73257132D01*
X114396971Y-73257132D02*
X114301733Y-73399989D01*
X114301733Y-73399989D02*
X114206495Y-73495227D01*
X114206495Y-73495227D02*
X114111257Y-73542846D01*
X115301733Y-73257132D02*
X115396971Y-73257132D01*
X115396971Y-73257132D02*
X115492209Y-73304751D01*
X115492209Y-73304751D02*
X115539828Y-73352370D01*
X115539828Y-73352370D02*
X115587447Y-73447608D01*
X115587447Y-73447608D02*
X115635066Y-73638084D01*
X115635066Y-73638084D02*
X115635066Y-73876179D01*
X115635066Y-73876179D02*
X115587447Y-74066655D01*
X115587447Y-74066655D02*
X115539828Y-74161893D01*
X115539828Y-74161893D02*
X115492209Y-74209513D01*
X115492209Y-74209513D02*
X115396971Y-74257132D01*
X115396971Y-74257132D02*
X115301733Y-74257132D01*
X115301733Y-74257132D02*
X115206495Y-74209513D01*
X115206495Y-74209513D02*
X115158876Y-74161893D01*
X115158876Y-74161893D02*
X115111257Y-74066655D01*
X115111257Y-74066655D02*
X115063638Y-73876179D01*
X115063638Y-73876179D02*
X115063638Y-73638084D01*
X115063638Y-73638084D02*
X115111257Y-73447608D01*
X115111257Y-73447608D02*
X115158876Y-73352370D01*
X115158876Y-73352370D02*
X115206495Y-73304751D01*
X115206495Y-73304751D02*
X115301733Y-73257132D01*
X116063638Y-73876179D02*
X116825543Y-73876179D01*
X116444590Y-74257132D02*
X116444590Y-73495227D01*
X117301733Y-73876179D02*
X118063638Y-73876179D01*
X118492209Y-73352370D02*
X118539828Y-73304751D01*
X118539828Y-73304751D02*
X118635066Y-73257132D01*
X118635066Y-73257132D02*
X118873161Y-73257132D01*
X118873161Y-73257132D02*
X118968399Y-73304751D01*
X118968399Y-73304751D02*
X119016018Y-73352370D01*
X119016018Y-73352370D02*
X119063637Y-73447608D01*
X119063637Y-73447608D02*
X119063637Y-73542846D01*
X119063637Y-73542846D02*
X119016018Y-73685703D01*
X119016018Y-73685703D02*
X118444590Y-74257132D01*
X118444590Y-74257132D02*
X119063637Y-74257132D01*
X125738400Y-107810132D02*
X125786019Y-107667275D01*
X125786019Y-107667275D02*
X125786019Y-107429180D01*
X125786019Y-107429180D02*
X125738400Y-107333942D01*
X125738400Y-107333942D02*
X125690780Y-107286323D01*
X125690780Y-107286323D02*
X125595542Y-107238704D01*
X125595542Y-107238704D02*
X125500304Y-107238704D01*
X125500304Y-107238704D02*
X125405066Y-107286323D01*
X125405066Y-107286323D02*
X125357447Y-107333942D01*
X125357447Y-107333942D02*
X125309828Y-107429180D01*
X125309828Y-107429180D02*
X125262209Y-107619656D01*
X125262209Y-107619656D02*
X125214590Y-107714894D01*
X125214590Y-107714894D02*
X125166971Y-107762513D01*
X125166971Y-107762513D02*
X125071733Y-107810132D01*
X125071733Y-107810132D02*
X124976495Y-107810132D01*
X124976495Y-107810132D02*
X124881257Y-107762513D01*
X124881257Y-107762513D02*
X124833638Y-107714894D01*
X124833638Y-107714894D02*
X124786019Y-107619656D01*
X124786019Y-107619656D02*
X124786019Y-107381561D01*
X124786019Y-107381561D02*
X124833638Y-107238704D01*
X124786019Y-106905370D02*
X125786019Y-106667275D01*
X125786019Y-106667275D02*
X125071733Y-106476799D01*
X125071733Y-106476799D02*
X125786019Y-106286323D01*
X125786019Y-106286323D02*
X124786019Y-106048228D01*
X124881257Y-105714894D02*
X124833638Y-105667275D01*
X124833638Y-105667275D02*
X124786019Y-105572037D01*
X124786019Y-105572037D02*
X124786019Y-105333942D01*
X124786019Y-105333942D02*
X124833638Y-105238704D01*
X124833638Y-105238704D02*
X124881257Y-105191085D01*
X124881257Y-105191085D02*
X124976495Y-105143466D01*
X124976495Y-105143466D02*
X125071733Y-105143466D01*
X125071733Y-105143466D02*
X125214590Y-105191085D01*
X125214590Y-105191085D02*
X125786019Y-105762513D01*
X125786019Y-105762513D02*
X125786019Y-105143466D01*
D15*
X103115600Y-119286800D02*
X103115600Y-117906800D01*
X104495600Y-119286800D02*
X103115600Y-119286800D01*
X105765600Y-119286800D02*
X116035600Y-119286800D01*
X105765600Y-119286800D02*
X105765600Y-116526800D01*
X116035600Y-119286800D02*
X116035600Y-116526800D01*
X105765600Y-116526800D02*
X116035600Y-116526800D01*
X83974000Y-77917600D02*
X83974000Y-83157600D01*
X84311000Y-77917600D02*
X83974000Y-77917600D01*
X84311000Y-83157600D02*
X83974000Y-83157600D01*
X86714000Y-77917600D02*
X86377000Y-77917600D01*
X86714000Y-77917600D02*
X86714000Y-83157600D01*
X86714000Y-83157600D02*
X86377000Y-83157600D01*
X80164000Y-116922800D02*
X80494000Y-116922800D01*
X80164000Y-123462800D02*
X80164000Y-116922800D01*
X80494000Y-123462800D02*
X80164000Y-123462800D01*
X82574000Y-123462800D02*
X82904000Y-123462800D01*
X82904000Y-116922800D02*
X82574000Y-116922800D01*
X82904000Y-123462800D02*
X82904000Y-116922800D01*
X97002956Y-99667556D02*
X97002956Y-99330556D01*
X97002956Y-102070556D02*
X97002956Y-101733556D01*
X102242956Y-99330556D02*
X97002956Y-99330556D01*
X102242956Y-99667556D02*
X102242956Y-99330556D01*
X102242956Y-102070556D02*
X97002956Y-102070556D01*
X102242956Y-102070556D02*
X102242956Y-101733556D01*
X72137600Y-110837600D02*
X72467600Y-110837600D01*
X72137600Y-117377600D02*
X72137600Y-110837600D01*
X72467600Y-117377600D02*
X72137600Y-117377600D01*
X74547600Y-117377600D02*
X74877600Y-117377600D01*
X74877600Y-110837600D02*
X74547600Y-110837600D01*
X74877600Y-117377600D02*
X74877600Y-110837600D01*
X58066000Y-116353600D02*
X58403000Y-116353600D01*
X58066000Y-121593600D02*
X58066000Y-116353600D01*
X58066000Y-121593600D02*
X58403000Y-121593600D01*
X60469000Y-116353600D02*
X60806000Y-116353600D01*
X60469000Y-121593600D02*
X60806000Y-121593600D01*
X60806000Y-121593600D02*
X60806000Y-116353600D01*
X77166800Y-116922800D02*
X77496800Y-116922800D01*
X77166800Y-123462800D02*
X77166800Y-116922800D01*
X77496800Y-123462800D02*
X77166800Y-123462800D01*
X79576800Y-123462800D02*
X79906800Y-123462800D01*
X79906800Y-116922800D02*
X79576800Y-116922800D01*
X79906800Y-123462800D02*
X79906800Y-116922800D01*
X72137600Y-103054800D02*
X72474600Y-103054800D01*
X72137600Y-108294800D02*
X72137600Y-103054800D01*
X72137600Y-108294800D02*
X72474600Y-108294800D01*
X74540600Y-103054800D02*
X74877600Y-103054800D01*
X74540600Y-108294800D02*
X74877600Y-108294800D01*
X74877600Y-108294800D02*
X74877600Y-103054800D01*
X105614800Y-74437513D02*
X105614800Y-79677513D01*
X105951800Y-74437513D02*
X105614800Y-74437513D01*
X105951800Y-79677513D02*
X105614800Y-79677513D01*
X108354800Y-74437513D02*
X108017800Y-74437513D01*
X108354800Y-74437513D02*
X108354800Y-79677513D01*
X108354800Y-79677513D02*
X108017800Y-79677513D01*
X104263200Y-91055200D02*
X104263200Y-96295200D01*
X104600200Y-91055200D02*
X104263200Y-91055200D01*
X104600200Y-96295200D02*
X104263200Y-96295200D01*
X107003200Y-91055200D02*
X106666200Y-91055200D01*
X107003200Y-91055200D02*
X107003200Y-96295200D01*
X107003200Y-96295200D02*
X106666200Y-96295200D01*
X60168800Y-94388000D02*
X60168800Y-94725000D01*
X60168800Y-94388000D02*
X65408800Y-94388000D01*
X60168800Y-96791000D02*
X60168800Y-97128000D01*
X60168800Y-97128000D02*
X65408800Y-97128000D01*
X65408800Y-94388000D02*
X65408800Y-94725000D01*
X65408800Y-96791000D02*
X65408800Y-97128000D01*
X104775356Y-105451756D02*
X106315356Y-105451756D01*
X104775356Y-105491756D02*
X106315356Y-105491756D01*
X104776356Y-105411756D02*
X106315356Y-105411756D01*
X104778356Y-105371756D02*
X106315356Y-105371756D01*
X104780356Y-105331756D02*
X106315356Y-105331756D01*
X104783356Y-105291756D02*
X106315356Y-105291756D01*
X104786356Y-105251756D02*
X106315356Y-105251756D01*
X104790356Y-105211756D02*
X106315356Y-105211756D01*
X104795356Y-105171756D02*
X106315356Y-105171756D01*
X104800356Y-105131756D02*
X106315356Y-105131756D01*
X104806356Y-105091756D02*
X106315356Y-105091756D01*
X104812356Y-105051756D02*
X106315356Y-105051756D01*
X104819356Y-105011756D02*
X106315356Y-105011756D01*
X104827356Y-104971756D02*
X106315356Y-104971756D01*
X104836356Y-104931756D02*
X106315356Y-104931756D01*
X104845356Y-104891756D02*
X106315356Y-104891756D01*
X104854356Y-104851756D02*
X106315356Y-104851756D01*
X104865356Y-104811756D02*
X106315356Y-104811756D01*
X104876356Y-104771756D02*
X106315356Y-104771756D01*
X104888356Y-104731756D02*
X106315356Y-104731756D01*
X104900356Y-104691756D02*
X106315356Y-104691756D01*
X104913356Y-104651756D02*
X106315356Y-104651756D01*
X104927356Y-104611756D02*
X106315356Y-104611756D01*
X104942356Y-104571756D02*
X106315356Y-104571756D01*
X104957356Y-104531756D02*
X106315356Y-104531756D01*
X104973356Y-104491756D02*
X106315356Y-104491756D01*
X104990356Y-104451756D02*
X106315356Y-104451756D01*
X105008356Y-104411756D02*
X106315356Y-104411756D01*
X105026356Y-104371756D02*
X106315356Y-104371756D01*
X105046356Y-104331756D02*
X106315356Y-104331756D01*
X105066356Y-104291756D02*
X106315356Y-104291756D01*
X105087356Y-104251756D02*
X106315356Y-104251756D01*
X105109356Y-104211756D02*
X106315356Y-104211756D01*
X105132356Y-104171756D02*
X106315356Y-104171756D01*
X105156356Y-104131756D02*
X106315356Y-104131756D01*
X105180356Y-104091756D02*
X106315356Y-104091756D01*
X105206356Y-104051756D02*
X106315356Y-104051756D01*
X105233356Y-104011756D02*
X106315356Y-104011756D01*
X105261356Y-103971756D02*
X106315356Y-103971756D01*
X105290356Y-103931756D02*
X106315356Y-103931756D01*
X105320356Y-103891756D02*
X106315356Y-103891756D01*
X105352356Y-103851756D02*
X106315356Y-103851756D01*
X105385356Y-103811756D02*
X106315356Y-103811756D01*
X105419356Y-103771756D02*
X106315356Y-103771756D01*
X105454356Y-103731756D02*
X106315356Y-103731756D01*
X105491356Y-103691756D02*
X106315356Y-103691756D01*
X105530356Y-103651756D02*
X106315356Y-103651756D01*
X105570356Y-103611756D02*
X106315356Y-103611756D01*
X105612356Y-103571756D02*
X106315356Y-103571756D01*
X105630356Y-108046531D02*
X106130356Y-108046531D01*
X105656356Y-103531756D02*
X106315356Y-103531756D01*
X105703356Y-103491756D02*
X106315356Y-103491756D01*
X105751356Y-103451756D02*
X108959356Y-103451756D01*
X105802356Y-103411756D02*
X108908356Y-103411756D01*
X105856356Y-103371756D02*
X108854356Y-103371756D01*
X105880356Y-108296531D02*
X105880356Y-107796531D01*
X105912356Y-103331756D02*
X108798356Y-103331756D01*
X105972356Y-103291756D02*
X108738356Y-103291756D01*
X106036356Y-103251756D02*
X108674356Y-103251756D01*
X106104356Y-103211756D02*
X108606356Y-103211756D01*
X106178356Y-103171756D02*
X108532356Y-103171756D01*
X106257356Y-103131756D02*
X108453356Y-103131756D01*
X106344356Y-103091756D02*
X108366356Y-103091756D01*
X106441356Y-103051756D02*
X108269356Y-103051756D01*
X106550356Y-103011756D02*
X108160356Y-103011756D01*
X106678356Y-102971756D02*
X108032356Y-102971756D01*
X106838356Y-102931756D02*
X107872356Y-102931756D01*
X107072356Y-102891756D02*
X107638356Y-102891756D01*
X108395356Y-103491756D02*
X109007356Y-103491756D01*
X108395356Y-103531756D02*
X109054356Y-103531756D01*
X108395356Y-103571756D02*
X109098356Y-103571756D01*
X108395356Y-103611756D02*
X109140356Y-103611756D01*
X108395356Y-103651756D02*
X109180356Y-103651756D01*
X108395356Y-103691756D02*
X109219356Y-103691756D01*
X108395356Y-103731756D02*
X109256356Y-103731756D01*
X108395356Y-103771756D02*
X109291356Y-103771756D01*
X108395356Y-103811756D02*
X109325356Y-103811756D01*
X108395356Y-103851756D02*
X109358356Y-103851756D01*
X108395356Y-103891756D02*
X109390356Y-103891756D01*
X108395356Y-103931756D02*
X109420356Y-103931756D01*
X108395356Y-103971756D02*
X109449356Y-103971756D01*
X108395356Y-104011756D02*
X109477356Y-104011756D01*
X108395356Y-104051756D02*
X109504356Y-104051756D01*
X108395356Y-104091756D02*
X109530356Y-104091756D01*
X108395356Y-104131756D02*
X109554356Y-104131756D01*
X108395356Y-104171756D02*
X109578356Y-104171756D01*
X108395356Y-104211756D02*
X109601356Y-104211756D01*
X108395356Y-104251756D02*
X109623356Y-104251756D01*
X108395356Y-104291756D02*
X109644356Y-104291756D01*
X108395356Y-104331756D02*
X109664356Y-104331756D01*
X108395356Y-104371756D02*
X109684356Y-104371756D01*
X108395356Y-104411756D02*
X109702356Y-104411756D01*
X108395356Y-104451756D02*
X109720356Y-104451756D01*
X108395356Y-104491756D02*
X109737356Y-104491756D01*
X108395356Y-104531756D02*
X109753356Y-104531756D01*
X108395356Y-104571756D02*
X109768356Y-104571756D01*
X108395356Y-104611756D02*
X109783356Y-104611756D01*
X108395356Y-104651756D02*
X109797356Y-104651756D01*
X108395356Y-104691756D02*
X109810356Y-104691756D01*
X108395356Y-104731756D02*
X109822356Y-104731756D01*
X108395356Y-104771756D02*
X109834356Y-104771756D01*
X108395356Y-104811756D02*
X109845356Y-104811756D01*
X108395356Y-104851756D02*
X109856356Y-104851756D01*
X108395356Y-104891756D02*
X109865356Y-104891756D01*
X108395356Y-104931756D02*
X109874356Y-104931756D01*
X108395356Y-104971756D02*
X109883356Y-104971756D01*
X108395356Y-105011756D02*
X109891356Y-105011756D01*
X108395356Y-105051756D02*
X109898356Y-105051756D01*
X108395356Y-105091756D02*
X109904356Y-105091756D01*
X108395356Y-105131756D02*
X109910356Y-105131756D01*
X108395356Y-105171756D02*
X109915356Y-105171756D01*
X108395356Y-105211756D02*
X109920356Y-105211756D01*
X108395356Y-105251756D02*
X109924356Y-105251756D01*
X108395356Y-105291756D02*
X109927356Y-105291756D01*
X108395356Y-105331756D02*
X109930356Y-105331756D01*
X108395356Y-105371756D02*
X109932356Y-105371756D01*
X108395356Y-105411756D02*
X109934356Y-105411756D01*
X108395356Y-105451756D02*
X109935356Y-105451756D01*
X108395356Y-105491756D02*
X109935356Y-105491756D01*
X109975356Y-105491756D02*
G75*
G02*
X104735356Y-105491756I-2620000J0D01*
G01*
X104735356Y-105491756D02*
G75*
G02*
X109975356Y-105491756I2620000J0D01*
G01*
X108184000Y-93295600D02*
X109724000Y-93295600D01*
X108184000Y-93335600D02*
X109724000Y-93335600D01*
X108185000Y-93255600D02*
X109724000Y-93255600D01*
X108187000Y-93215600D02*
X109724000Y-93215600D01*
X108189000Y-93175600D02*
X109724000Y-93175600D01*
X108192000Y-93135600D02*
X109724000Y-93135600D01*
X108195000Y-93095600D02*
X109724000Y-93095600D01*
X108199000Y-93055600D02*
X109724000Y-93055600D01*
X108204000Y-93015600D02*
X109724000Y-93015600D01*
X108209000Y-92975600D02*
X109724000Y-92975600D01*
X108215000Y-92935600D02*
X109724000Y-92935600D01*
X108221000Y-92895600D02*
X109724000Y-92895600D01*
X108228000Y-92855600D02*
X109724000Y-92855600D01*
X108236000Y-92815600D02*
X109724000Y-92815600D01*
X108245000Y-92775600D02*
X109724000Y-92775600D01*
X108254000Y-92735600D02*
X109724000Y-92735600D01*
X108263000Y-92695600D02*
X109724000Y-92695600D01*
X108274000Y-92655600D02*
X109724000Y-92655600D01*
X108285000Y-92615600D02*
X109724000Y-92615600D01*
X108297000Y-92575600D02*
X109724000Y-92575600D01*
X108309000Y-92535600D02*
X109724000Y-92535600D01*
X108322000Y-92495600D02*
X109724000Y-92495600D01*
X108336000Y-92455600D02*
X109724000Y-92455600D01*
X108351000Y-92415600D02*
X109724000Y-92415600D01*
X108366000Y-92375600D02*
X109724000Y-92375600D01*
X108382000Y-92335600D02*
X109724000Y-92335600D01*
X108399000Y-92295600D02*
X109724000Y-92295600D01*
X108417000Y-92255600D02*
X109724000Y-92255600D01*
X108435000Y-92215600D02*
X109724000Y-92215600D01*
X108455000Y-92175600D02*
X109724000Y-92175600D01*
X108475000Y-92135600D02*
X109724000Y-92135600D01*
X108496000Y-92095600D02*
X109724000Y-92095600D01*
X108518000Y-92055600D02*
X109724000Y-92055600D01*
X108541000Y-92015600D02*
X109724000Y-92015600D01*
X108565000Y-91975600D02*
X109724000Y-91975600D01*
X108589000Y-91935600D02*
X109724000Y-91935600D01*
X108615000Y-91895600D02*
X109724000Y-91895600D01*
X108642000Y-91855600D02*
X109724000Y-91855600D01*
X108670000Y-91815600D02*
X109724000Y-91815600D01*
X108699000Y-91775600D02*
X109724000Y-91775600D01*
X108729000Y-91735600D02*
X109724000Y-91735600D01*
X108761000Y-91695600D02*
X109724000Y-91695600D01*
X108794000Y-91655600D02*
X109724000Y-91655600D01*
X108828000Y-91615600D02*
X109724000Y-91615600D01*
X108863000Y-91575600D02*
X109724000Y-91575600D01*
X108900000Y-91535600D02*
X109724000Y-91535600D01*
X108939000Y-91495600D02*
X109724000Y-91495600D01*
X108979000Y-91455600D02*
X109724000Y-91455600D01*
X109021000Y-91415600D02*
X109724000Y-91415600D01*
X109039000Y-95890375D02*
X109539000Y-95890375D01*
X109065000Y-91375600D02*
X109724000Y-91375600D01*
X109112000Y-91335600D02*
X109724000Y-91335600D01*
X109160000Y-91295600D02*
X112368000Y-91295600D01*
X109211000Y-91255600D02*
X112317000Y-91255600D01*
X109265000Y-91215600D02*
X112263000Y-91215600D01*
X109289000Y-96140375D02*
X109289000Y-95640375D01*
X109321000Y-91175600D02*
X112207000Y-91175600D01*
X109381000Y-91135600D02*
X112147000Y-91135600D01*
X109445000Y-91095600D02*
X112083000Y-91095600D01*
X109513000Y-91055600D02*
X112015000Y-91055600D01*
X109587000Y-91015600D02*
X111941000Y-91015600D01*
X109666000Y-90975600D02*
X111862000Y-90975600D01*
X109753000Y-90935600D02*
X111775000Y-90935600D01*
X109850000Y-90895600D02*
X111678000Y-90895600D01*
X109959000Y-90855600D02*
X111569000Y-90855600D01*
X110087000Y-90815600D02*
X111441000Y-90815600D01*
X110247000Y-90775600D02*
X111281000Y-90775600D01*
X110481000Y-90735600D02*
X111047000Y-90735600D01*
X111804000Y-91335600D02*
X112416000Y-91335600D01*
X111804000Y-91375600D02*
X112463000Y-91375600D01*
X111804000Y-91415600D02*
X112507000Y-91415600D01*
X111804000Y-91455600D02*
X112549000Y-91455600D01*
X111804000Y-91495600D02*
X112589000Y-91495600D01*
X111804000Y-91535600D02*
X112628000Y-91535600D01*
X111804000Y-91575600D02*
X112665000Y-91575600D01*
X111804000Y-91615600D02*
X112700000Y-91615600D01*
X111804000Y-91655600D02*
X112734000Y-91655600D01*
X111804000Y-91695600D02*
X112767000Y-91695600D01*
X111804000Y-91735600D02*
X112799000Y-91735600D01*
X111804000Y-91775600D02*
X112829000Y-91775600D01*
X111804000Y-91815600D02*
X112858000Y-91815600D01*
X111804000Y-91855600D02*
X112886000Y-91855600D01*
X111804000Y-91895600D02*
X112913000Y-91895600D01*
X111804000Y-91935600D02*
X112939000Y-91935600D01*
X111804000Y-91975600D02*
X112963000Y-91975600D01*
X111804000Y-92015600D02*
X112987000Y-92015600D01*
X111804000Y-92055600D02*
X113010000Y-92055600D01*
X111804000Y-92095600D02*
X113032000Y-92095600D01*
X111804000Y-92135600D02*
X113053000Y-92135600D01*
X111804000Y-92175600D02*
X113073000Y-92175600D01*
X111804000Y-92215600D02*
X113093000Y-92215600D01*
X111804000Y-92255600D02*
X113111000Y-92255600D01*
X111804000Y-92295600D02*
X113129000Y-92295600D01*
X111804000Y-92335600D02*
X113146000Y-92335600D01*
X111804000Y-92375600D02*
X113162000Y-92375600D01*
X111804000Y-92415600D02*
X113177000Y-92415600D01*
X111804000Y-92455600D02*
X113192000Y-92455600D01*
X111804000Y-92495600D02*
X113206000Y-92495600D01*
X111804000Y-92535600D02*
X113219000Y-92535600D01*
X111804000Y-92575600D02*
X113231000Y-92575600D01*
X111804000Y-92615600D02*
X113243000Y-92615600D01*
X111804000Y-92655600D02*
X113254000Y-92655600D01*
X111804000Y-92695600D02*
X113265000Y-92695600D01*
X111804000Y-92735600D02*
X113274000Y-92735600D01*
X111804000Y-92775600D02*
X113283000Y-92775600D01*
X111804000Y-92815600D02*
X113292000Y-92815600D01*
X111804000Y-92855600D02*
X113300000Y-92855600D01*
X111804000Y-92895600D02*
X113307000Y-92895600D01*
X111804000Y-92935600D02*
X113313000Y-92935600D01*
X111804000Y-92975600D02*
X113319000Y-92975600D01*
X111804000Y-93015600D02*
X113324000Y-93015600D01*
X111804000Y-93055600D02*
X113329000Y-93055600D01*
X111804000Y-93095600D02*
X113333000Y-93095600D01*
X111804000Y-93135600D02*
X113336000Y-93135600D01*
X111804000Y-93175600D02*
X113339000Y-93175600D01*
X111804000Y-93215600D02*
X113341000Y-93215600D01*
X111804000Y-93255600D02*
X113343000Y-93255600D01*
X111804000Y-93295600D02*
X113344000Y-93295600D01*
X111804000Y-93335600D02*
X113344000Y-93335600D01*
X113384000Y-93335600D02*
G75*
G02*
X108144000Y-93335600I-2620000J0D01*
G01*
X108144000Y-93335600D02*
G75*
G02*
X113384000Y-93335600I2620000J0D01*
G01*
X100803756Y-103170643D02*
X100803756Y-108410643D01*
X101140756Y-103170643D02*
X100803756Y-103170643D01*
X101140756Y-108410643D02*
X100803756Y-108410643D01*
X103543756Y-103170643D02*
X103206756Y-103170643D01*
X103543756Y-103170643D02*
X103543756Y-108410643D01*
X103543756Y-108410643D02*
X103206756Y-108410643D01*
X105614800Y-81538713D02*
X105614800Y-86778713D01*
X105951800Y-81538713D02*
X105614800Y-81538713D01*
X105951800Y-86778713D02*
X105614800Y-86778713D01*
X108354800Y-81538713D02*
X108017800Y-81538713D01*
X108354800Y-81538713D02*
X108354800Y-86778713D01*
X108354800Y-86778713D02*
X108017800Y-86778713D01*
X72280000Y-128227600D02*
X72280000Y-126847600D01*
X73660000Y-128227600D02*
X72280000Y-128227600D01*
X74930000Y-125467600D02*
X82660000Y-125467600D01*
X74930000Y-128227600D02*
X74930000Y-125467600D01*
X74930000Y-128227600D02*
X82660000Y-128227600D01*
X82660000Y-128227600D02*
X82660000Y-125467600D01*
X112786800Y-83379513D02*
X114326800Y-83379513D01*
X112786800Y-83419513D02*
X114326800Y-83419513D01*
X112787800Y-83339513D02*
X114326800Y-83339513D01*
X112789800Y-83299513D02*
X114326800Y-83299513D01*
X112791800Y-83259513D02*
X114326800Y-83259513D01*
X112794800Y-83219513D02*
X114326800Y-83219513D01*
X112797800Y-83179513D02*
X114326800Y-83179513D01*
X112801800Y-83139513D02*
X114326800Y-83139513D01*
X112806800Y-83099513D02*
X114326800Y-83099513D01*
X112811800Y-83059513D02*
X114326800Y-83059513D01*
X112817800Y-83019513D02*
X114326800Y-83019513D01*
X112823800Y-82979513D02*
X114326800Y-82979513D01*
X112830800Y-82939513D02*
X114326800Y-82939513D01*
X112838800Y-82899513D02*
X114326800Y-82899513D01*
X112847800Y-82859513D02*
X114326800Y-82859513D01*
X112856800Y-82819513D02*
X114326800Y-82819513D01*
X112865800Y-82779513D02*
X114326800Y-82779513D01*
X112876800Y-82739513D02*
X114326800Y-82739513D01*
X112887800Y-82699513D02*
X114326800Y-82699513D01*
X112899800Y-82659513D02*
X114326800Y-82659513D01*
X112911800Y-82619513D02*
X114326800Y-82619513D01*
X112924800Y-82579513D02*
X114326800Y-82579513D01*
X112938800Y-82539513D02*
X114326800Y-82539513D01*
X112953800Y-82499513D02*
X114326800Y-82499513D01*
X112968800Y-82459513D02*
X114326800Y-82459513D01*
X112984800Y-82419513D02*
X114326800Y-82419513D01*
X113001800Y-82379513D02*
X114326800Y-82379513D01*
X113019800Y-82339513D02*
X114326800Y-82339513D01*
X113037800Y-82299513D02*
X114326800Y-82299513D01*
X113057800Y-82259513D02*
X114326800Y-82259513D01*
X113077800Y-82219513D02*
X114326800Y-82219513D01*
X113098800Y-82179513D02*
X114326800Y-82179513D01*
X113120800Y-82139513D02*
X114326800Y-82139513D01*
X113143800Y-82099513D02*
X114326800Y-82099513D01*
X113167800Y-82059513D02*
X114326800Y-82059513D01*
X113191800Y-82019513D02*
X114326800Y-82019513D01*
X113217800Y-81979513D02*
X114326800Y-81979513D01*
X113244800Y-81939513D02*
X114326800Y-81939513D01*
X113272800Y-81899513D02*
X114326800Y-81899513D01*
X113301800Y-81859513D02*
X114326800Y-81859513D01*
X113331800Y-81819513D02*
X114326800Y-81819513D01*
X113363800Y-81779513D02*
X114326800Y-81779513D01*
X113396800Y-81739513D02*
X114326800Y-81739513D01*
X113430800Y-81699513D02*
X114326800Y-81699513D01*
X113465800Y-81659513D02*
X114326800Y-81659513D01*
X113502800Y-81619513D02*
X114326800Y-81619513D01*
X113541800Y-81579513D02*
X114326800Y-81579513D01*
X113581800Y-81539513D02*
X114326800Y-81539513D01*
X113623800Y-81499513D02*
X114326800Y-81499513D01*
X113641800Y-85974288D02*
X114141800Y-85974288D01*
X113667800Y-81459513D02*
X114326800Y-81459513D01*
X113714800Y-81419513D02*
X114326800Y-81419513D01*
X113762800Y-81379513D02*
X116970800Y-81379513D01*
X113813800Y-81339513D02*
X116919800Y-81339513D01*
X113867800Y-81299513D02*
X116865800Y-81299513D01*
X113891800Y-86224288D02*
X113891800Y-85724288D01*
X113923800Y-81259513D02*
X116809800Y-81259513D01*
X113983800Y-81219513D02*
X116749800Y-81219513D01*
X114047800Y-81179513D02*
X116685800Y-81179513D01*
X114115800Y-81139513D02*
X116617800Y-81139513D01*
X114189800Y-81099513D02*
X116543800Y-81099513D01*
X114268800Y-81059513D02*
X116464800Y-81059513D01*
X114355800Y-81019513D02*
X116377800Y-81019513D01*
X114452800Y-80979513D02*
X116280800Y-80979513D01*
X114561800Y-80939513D02*
X116171800Y-80939513D01*
X114689800Y-80899513D02*
X116043800Y-80899513D01*
X114849800Y-80859513D02*
X115883800Y-80859513D01*
X115083800Y-80819513D02*
X115649800Y-80819513D01*
X116406800Y-81419513D02*
X117018800Y-81419513D01*
X116406800Y-81459513D02*
X117065800Y-81459513D01*
X116406800Y-81499513D02*
X117109800Y-81499513D01*
X116406800Y-81539513D02*
X117151800Y-81539513D01*
X116406800Y-81579513D02*
X117191800Y-81579513D01*
X116406800Y-81619513D02*
X117230800Y-81619513D01*
X116406800Y-81659513D02*
X117267800Y-81659513D01*
X116406800Y-81699513D02*
X117302800Y-81699513D01*
X116406800Y-81739513D02*
X117336800Y-81739513D01*
X116406800Y-81779513D02*
X117369800Y-81779513D01*
X116406800Y-81819513D02*
X117401800Y-81819513D01*
X116406800Y-81859513D02*
X117431800Y-81859513D01*
X116406800Y-81899513D02*
X117460800Y-81899513D01*
X116406800Y-81939513D02*
X117488800Y-81939513D01*
X116406800Y-81979513D02*
X117515800Y-81979513D01*
X116406800Y-82019513D02*
X117541800Y-82019513D01*
X116406800Y-82059513D02*
X117565800Y-82059513D01*
X116406800Y-82099513D02*
X117589800Y-82099513D01*
X116406800Y-82139513D02*
X117612800Y-82139513D01*
X116406800Y-82179513D02*
X117634800Y-82179513D01*
X116406800Y-82219513D02*
X117655800Y-82219513D01*
X116406800Y-82259513D02*
X117675800Y-82259513D01*
X116406800Y-82299513D02*
X117695800Y-82299513D01*
X116406800Y-82339513D02*
X117713800Y-82339513D01*
X116406800Y-82379513D02*
X117731800Y-82379513D01*
X116406800Y-82419513D02*
X117748800Y-82419513D01*
X116406800Y-82459513D02*
X117764800Y-82459513D01*
X116406800Y-82499513D02*
X117779800Y-82499513D01*
X116406800Y-82539513D02*
X117794800Y-82539513D01*
X116406800Y-82579513D02*
X117808800Y-82579513D01*
X116406800Y-82619513D02*
X117821800Y-82619513D01*
X116406800Y-82659513D02*
X117833800Y-82659513D01*
X116406800Y-82699513D02*
X117845800Y-82699513D01*
X116406800Y-82739513D02*
X117856800Y-82739513D01*
X116406800Y-82779513D02*
X117867800Y-82779513D01*
X116406800Y-82819513D02*
X117876800Y-82819513D01*
X116406800Y-82859513D02*
X117885800Y-82859513D01*
X116406800Y-82899513D02*
X117894800Y-82899513D01*
X116406800Y-82939513D02*
X117902800Y-82939513D01*
X116406800Y-82979513D02*
X117909800Y-82979513D01*
X116406800Y-83019513D02*
X117915800Y-83019513D01*
X116406800Y-83059513D02*
X117921800Y-83059513D01*
X116406800Y-83099513D02*
X117926800Y-83099513D01*
X116406800Y-83139513D02*
X117931800Y-83139513D01*
X116406800Y-83179513D02*
X117935800Y-83179513D01*
X116406800Y-83219513D02*
X117938800Y-83219513D01*
X116406800Y-83259513D02*
X117941800Y-83259513D01*
X116406800Y-83299513D02*
X117943800Y-83299513D01*
X116406800Y-83339513D02*
X117945800Y-83339513D01*
X116406800Y-83379513D02*
X117946800Y-83379513D01*
X116406800Y-83419513D02*
X117946800Y-83419513D01*
X117986800Y-83419513D02*
G75*
G02*
X112746800Y-83419513I-2620000J0D01*
G01*
X112746800Y-83419513D02*
G75*
G02*
X117986800Y-83419513I2620000J0D01*
G01*
X47169200Y-114914488D02*
X45629200Y-114914488D01*
X47169200Y-114954488D02*
X45629200Y-114954488D01*
X47169200Y-114994488D02*
X45630200Y-114994488D01*
X47169200Y-115034488D02*
X45632200Y-115034488D01*
X47169200Y-115074488D02*
X45634200Y-115074488D01*
X47169200Y-115114488D02*
X45637200Y-115114488D01*
X47169200Y-115154488D02*
X45640200Y-115154488D01*
X47169200Y-115194488D02*
X45644200Y-115194488D01*
X47169200Y-115234488D02*
X45649200Y-115234488D01*
X47169200Y-115274488D02*
X45654200Y-115274488D01*
X47169200Y-115314488D02*
X45660200Y-115314488D01*
X47169200Y-115354488D02*
X45666200Y-115354488D01*
X47169200Y-115394488D02*
X45673200Y-115394488D01*
X47169200Y-115434488D02*
X45681200Y-115434488D01*
X47169200Y-115474488D02*
X45690200Y-115474488D01*
X47169200Y-115514488D02*
X45699200Y-115514488D01*
X47169200Y-115554488D02*
X45708200Y-115554488D01*
X47169200Y-115594488D02*
X45719200Y-115594488D01*
X47169200Y-115634488D02*
X45730200Y-115634488D01*
X47169200Y-115674488D02*
X45742200Y-115674488D01*
X47169200Y-115714488D02*
X45754200Y-115714488D01*
X47169200Y-115754488D02*
X45767200Y-115754488D01*
X47169200Y-115794488D02*
X45781200Y-115794488D01*
X47169200Y-115834488D02*
X45796200Y-115834488D01*
X47169200Y-115874488D02*
X45811200Y-115874488D01*
X47169200Y-115914488D02*
X45827200Y-115914488D01*
X47169200Y-115954488D02*
X45844200Y-115954488D01*
X47169200Y-115994488D02*
X45862200Y-115994488D01*
X47169200Y-116034488D02*
X45880200Y-116034488D01*
X47169200Y-116074488D02*
X45900200Y-116074488D01*
X47169200Y-116114488D02*
X45920200Y-116114488D01*
X47169200Y-116154488D02*
X45941200Y-116154488D01*
X47169200Y-116194488D02*
X45963200Y-116194488D01*
X47169200Y-116234488D02*
X45986200Y-116234488D01*
X47169200Y-116274488D02*
X46010200Y-116274488D01*
X47169200Y-116314488D02*
X46034200Y-116314488D01*
X47169200Y-116354488D02*
X46060200Y-116354488D01*
X47169200Y-116394488D02*
X46087200Y-116394488D01*
X47169200Y-116434488D02*
X46115200Y-116434488D01*
X47169200Y-116474488D02*
X46144200Y-116474488D01*
X47169200Y-116514488D02*
X46174200Y-116514488D01*
X47169200Y-116554488D02*
X46206200Y-116554488D01*
X47169200Y-116594488D02*
X46239200Y-116594488D01*
X47169200Y-116634488D02*
X46273200Y-116634488D01*
X47169200Y-116674488D02*
X46308200Y-116674488D01*
X47169200Y-116714488D02*
X46345200Y-116714488D01*
X47169200Y-116754488D02*
X46384200Y-116754488D01*
X47169200Y-116794488D02*
X46424200Y-116794488D01*
X47169200Y-116834488D02*
X46466200Y-116834488D01*
X47169200Y-116874488D02*
X46510200Y-116874488D01*
X47169200Y-116914488D02*
X46557200Y-116914488D01*
X48492200Y-117514488D02*
X47926200Y-117514488D01*
X48726200Y-117474488D02*
X47692200Y-117474488D01*
X48886200Y-117434488D02*
X47532200Y-117434488D01*
X49014200Y-117394488D02*
X47404200Y-117394488D01*
X49123200Y-117354488D02*
X47295200Y-117354488D01*
X49220200Y-117314488D02*
X47198200Y-117314488D01*
X49307200Y-117274488D02*
X47111200Y-117274488D01*
X49386200Y-117234488D02*
X47032200Y-117234488D01*
X49460200Y-117194488D02*
X46958200Y-117194488D01*
X49528200Y-117154488D02*
X46890200Y-117154488D01*
X49592200Y-117114488D02*
X46826200Y-117114488D01*
X49652200Y-117074488D02*
X46766200Y-117074488D01*
X49684200Y-112109713D02*
X49684200Y-112609713D01*
X49708200Y-117034488D02*
X46710200Y-117034488D01*
X49762200Y-116994488D02*
X46656200Y-116994488D01*
X49813200Y-116954488D02*
X46605200Y-116954488D01*
X49861200Y-116914488D02*
X49249200Y-116914488D01*
X49908200Y-116874488D02*
X49249200Y-116874488D01*
X49934200Y-112359713D02*
X49434200Y-112359713D01*
X49952200Y-116834488D02*
X49249200Y-116834488D01*
X49994200Y-116794488D02*
X49249200Y-116794488D01*
X50034200Y-116754488D02*
X49249200Y-116754488D01*
X50073200Y-116714488D02*
X49249200Y-116714488D01*
X50110200Y-116674488D02*
X49249200Y-116674488D01*
X50145200Y-116634488D02*
X49249200Y-116634488D01*
X50179200Y-116594488D02*
X49249200Y-116594488D01*
X50212200Y-116554488D02*
X49249200Y-116554488D01*
X50244200Y-116514488D02*
X49249200Y-116514488D01*
X50274200Y-116474488D02*
X49249200Y-116474488D01*
X50303200Y-116434488D02*
X49249200Y-116434488D01*
X50331200Y-116394488D02*
X49249200Y-116394488D01*
X50358200Y-116354488D02*
X49249200Y-116354488D01*
X50384200Y-116314488D02*
X49249200Y-116314488D01*
X50408200Y-116274488D02*
X49249200Y-116274488D01*
X50432200Y-116234488D02*
X49249200Y-116234488D01*
X50455200Y-116194488D02*
X49249200Y-116194488D01*
X50477200Y-116154488D02*
X49249200Y-116154488D01*
X50498200Y-116114488D02*
X49249200Y-116114488D01*
X50518200Y-116074488D02*
X49249200Y-116074488D01*
X50538200Y-116034488D02*
X49249200Y-116034488D01*
X50556200Y-115994488D02*
X49249200Y-115994488D01*
X50574200Y-115954488D02*
X49249200Y-115954488D01*
X50591200Y-115914488D02*
X49249200Y-115914488D01*
X50607200Y-115874488D02*
X49249200Y-115874488D01*
X50622200Y-115834488D02*
X49249200Y-115834488D01*
X50637200Y-115794488D02*
X49249200Y-115794488D01*
X50651200Y-115754488D02*
X49249200Y-115754488D01*
X50664200Y-115714488D02*
X49249200Y-115714488D01*
X50676200Y-115674488D02*
X49249200Y-115674488D01*
X50688200Y-115634488D02*
X49249200Y-115634488D01*
X50699200Y-115594488D02*
X49249200Y-115594488D01*
X50710200Y-115554488D02*
X49249200Y-115554488D01*
X50719200Y-115514488D02*
X49249200Y-115514488D01*
X50728200Y-115474488D02*
X49249200Y-115474488D01*
X50737200Y-115434488D02*
X49249200Y-115434488D01*
X50745200Y-115394488D02*
X49249200Y-115394488D01*
X50752200Y-115354488D02*
X49249200Y-115354488D01*
X50758200Y-115314488D02*
X49249200Y-115314488D01*
X50764200Y-115274488D02*
X49249200Y-115274488D01*
X50769200Y-115234488D02*
X49249200Y-115234488D01*
X50774200Y-115194488D02*
X49249200Y-115194488D01*
X50778200Y-115154488D02*
X49249200Y-115154488D01*
X50781200Y-115114488D02*
X49249200Y-115114488D01*
X50784200Y-115074488D02*
X49249200Y-115074488D01*
X50786200Y-115034488D02*
X49249200Y-115034488D01*
X50788200Y-114994488D02*
X49249200Y-114994488D01*
X50789200Y-114914488D02*
X49249200Y-114914488D01*
X50789200Y-114954488D02*
X49249200Y-114954488D01*
X50829200Y-114914488D02*
G75*
G02*
X45589200Y-114914488I-2620000J0D01*
G01*
X45589200Y-114914488D02*
G75*
G02*
X50829200Y-114914488I2620000J0D01*
G01*
X69140400Y-110837600D02*
X69470400Y-110837600D01*
X69140400Y-117377600D02*
X69140400Y-110837600D01*
X69470400Y-117377600D02*
X69140400Y-117377600D01*
X71550400Y-117377600D02*
X71880400Y-117377600D01*
X71880400Y-110837600D02*
X71550400Y-110837600D01*
X71880400Y-117377600D02*
X71880400Y-110837600D01*
X51166400Y-114813600D02*
X52706400Y-114813600D01*
X51166400Y-114853600D02*
X52706400Y-114853600D01*
X51167400Y-114773600D02*
X52706400Y-114773600D01*
X51169400Y-114733600D02*
X52706400Y-114733600D01*
X51171400Y-114693600D02*
X52706400Y-114693600D01*
X51174400Y-114653600D02*
X52706400Y-114653600D01*
X51177400Y-114613600D02*
X52706400Y-114613600D01*
X51181400Y-114573600D02*
X52706400Y-114573600D01*
X51186400Y-114533600D02*
X52706400Y-114533600D01*
X51191400Y-114493600D02*
X52706400Y-114493600D01*
X51197400Y-114453600D02*
X52706400Y-114453600D01*
X51203400Y-114413600D02*
X52706400Y-114413600D01*
X51210400Y-114373600D02*
X52706400Y-114373600D01*
X51218400Y-114333600D02*
X52706400Y-114333600D01*
X51227400Y-114293600D02*
X52706400Y-114293600D01*
X51236400Y-114253600D02*
X52706400Y-114253600D01*
X51245400Y-114213600D02*
X52706400Y-114213600D01*
X51256400Y-114173600D02*
X52706400Y-114173600D01*
X51267400Y-114133600D02*
X52706400Y-114133600D01*
X51279400Y-114093600D02*
X52706400Y-114093600D01*
X51291400Y-114053600D02*
X52706400Y-114053600D01*
X51304400Y-114013600D02*
X52706400Y-114013600D01*
X51318400Y-113973600D02*
X52706400Y-113973600D01*
X51333400Y-113933600D02*
X52706400Y-113933600D01*
X51348400Y-113893600D02*
X52706400Y-113893600D01*
X51364400Y-113853600D02*
X52706400Y-113853600D01*
X51381400Y-113813600D02*
X52706400Y-113813600D01*
X51399400Y-113773600D02*
X52706400Y-113773600D01*
X51417400Y-113733600D02*
X52706400Y-113733600D01*
X51437400Y-113693600D02*
X52706400Y-113693600D01*
X51457400Y-113653600D02*
X52706400Y-113653600D01*
X51478400Y-113613600D02*
X52706400Y-113613600D01*
X51500400Y-113573600D02*
X52706400Y-113573600D01*
X51523400Y-113533600D02*
X52706400Y-113533600D01*
X51547400Y-113493600D02*
X52706400Y-113493600D01*
X51571400Y-113453600D02*
X52706400Y-113453600D01*
X51597400Y-113413600D02*
X52706400Y-113413600D01*
X51624400Y-113373600D02*
X52706400Y-113373600D01*
X51652400Y-113333600D02*
X52706400Y-113333600D01*
X51681400Y-113293600D02*
X52706400Y-113293600D01*
X51711400Y-113253600D02*
X52706400Y-113253600D01*
X51743400Y-113213600D02*
X52706400Y-113213600D01*
X51776400Y-113173600D02*
X52706400Y-113173600D01*
X51810400Y-113133600D02*
X52706400Y-113133600D01*
X51845400Y-113093600D02*
X52706400Y-113093600D01*
X51882400Y-113053600D02*
X52706400Y-113053600D01*
X51921400Y-113013600D02*
X52706400Y-113013600D01*
X51961400Y-112973600D02*
X52706400Y-112973600D01*
X52003400Y-112933600D02*
X52706400Y-112933600D01*
X52021400Y-117408375D02*
X52521400Y-117408375D01*
X52047400Y-112893600D02*
X52706400Y-112893600D01*
X52094400Y-112853600D02*
X52706400Y-112853600D01*
X52142400Y-112813600D02*
X55350400Y-112813600D01*
X52193400Y-112773600D02*
X55299400Y-112773600D01*
X52247400Y-112733600D02*
X55245400Y-112733600D01*
X52271400Y-117658375D02*
X52271400Y-117158375D01*
X52303400Y-112693600D02*
X55189400Y-112693600D01*
X52363400Y-112653600D02*
X55129400Y-112653600D01*
X52427400Y-112613600D02*
X55065400Y-112613600D01*
X52495400Y-112573600D02*
X54997400Y-112573600D01*
X52569400Y-112533600D02*
X54923400Y-112533600D01*
X52648400Y-112493600D02*
X54844400Y-112493600D01*
X52735400Y-112453600D02*
X54757400Y-112453600D01*
X52832400Y-112413600D02*
X54660400Y-112413600D01*
X52941400Y-112373600D02*
X54551400Y-112373600D01*
X53069400Y-112333600D02*
X54423400Y-112333600D01*
X53229400Y-112293600D02*
X54263400Y-112293600D01*
X53463400Y-112253600D02*
X54029400Y-112253600D01*
X54786400Y-112853600D02*
X55398400Y-112853600D01*
X54786400Y-112893600D02*
X55445400Y-112893600D01*
X54786400Y-112933600D02*
X55489400Y-112933600D01*
X54786400Y-112973600D02*
X55531400Y-112973600D01*
X54786400Y-113013600D02*
X55571400Y-113013600D01*
X54786400Y-113053600D02*
X55610400Y-113053600D01*
X54786400Y-113093600D02*
X55647400Y-113093600D01*
X54786400Y-113133600D02*
X55682400Y-113133600D01*
X54786400Y-113173600D02*
X55716400Y-113173600D01*
X54786400Y-113213600D02*
X55749400Y-113213600D01*
X54786400Y-113253600D02*
X55781400Y-113253600D01*
X54786400Y-113293600D02*
X55811400Y-113293600D01*
X54786400Y-113333600D02*
X55840400Y-113333600D01*
X54786400Y-113373600D02*
X55868400Y-113373600D01*
X54786400Y-113413600D02*
X55895400Y-113413600D01*
X54786400Y-113453600D02*
X55921400Y-113453600D01*
X54786400Y-113493600D02*
X55945400Y-113493600D01*
X54786400Y-113533600D02*
X55969400Y-113533600D01*
X54786400Y-113573600D02*
X55992400Y-113573600D01*
X54786400Y-113613600D02*
X56014400Y-113613600D01*
X54786400Y-113653600D02*
X56035400Y-113653600D01*
X54786400Y-113693600D02*
X56055400Y-113693600D01*
X54786400Y-113733600D02*
X56075400Y-113733600D01*
X54786400Y-113773600D02*
X56093400Y-113773600D01*
X54786400Y-113813600D02*
X56111400Y-113813600D01*
X54786400Y-113853600D02*
X56128400Y-113853600D01*
X54786400Y-113893600D02*
X56144400Y-113893600D01*
X54786400Y-113933600D02*
X56159400Y-113933600D01*
X54786400Y-113973600D02*
X56174400Y-113973600D01*
X54786400Y-114013600D02*
X56188400Y-114013600D01*
X54786400Y-114053600D02*
X56201400Y-114053600D01*
X54786400Y-114093600D02*
X56213400Y-114093600D01*
X54786400Y-114133600D02*
X56225400Y-114133600D01*
X54786400Y-114173600D02*
X56236400Y-114173600D01*
X54786400Y-114213600D02*
X56247400Y-114213600D01*
X54786400Y-114253600D02*
X56256400Y-114253600D01*
X54786400Y-114293600D02*
X56265400Y-114293600D01*
X54786400Y-114333600D02*
X56274400Y-114333600D01*
X54786400Y-114373600D02*
X56282400Y-114373600D01*
X54786400Y-114413600D02*
X56289400Y-114413600D01*
X54786400Y-114453600D02*
X56295400Y-114453600D01*
X54786400Y-114493600D02*
X56301400Y-114493600D01*
X54786400Y-114533600D02*
X56306400Y-114533600D01*
X54786400Y-114573600D02*
X56311400Y-114573600D01*
X54786400Y-114613600D02*
X56315400Y-114613600D01*
X54786400Y-114653600D02*
X56318400Y-114653600D01*
X54786400Y-114693600D02*
X56321400Y-114693600D01*
X54786400Y-114733600D02*
X56323400Y-114733600D01*
X54786400Y-114773600D02*
X56325400Y-114773600D01*
X54786400Y-114813600D02*
X56326400Y-114813600D01*
X54786400Y-114853600D02*
X56326400Y-114853600D01*
X56366400Y-114853600D02*
G75*
G02*
X51126400Y-114853600I-2620000J0D01*
G01*
X51126400Y-114853600D02*
G75*
G02*
X56366400Y-114853600I2620000J0D01*
G01*
X69140400Y-103044000D02*
X69477400Y-103044000D01*
X69140400Y-108284000D02*
X69140400Y-103044000D01*
X69140400Y-108284000D02*
X69477400Y-108284000D01*
X71543400Y-103044000D02*
X71880400Y-103044000D01*
X71543400Y-108284000D02*
X71880400Y-108284000D01*
X71880400Y-108284000D02*
X71880400Y-103044000D01*
D16*
X90941600Y-78277400D02*
X95341600Y-78277400D01*
X90941600Y-85177400D02*
X95341600Y-85177400D01*
D14*
X89051600Y-78802400D02*
G75*
G02*
X88851600Y-78802400I-100000J0D01*
G01*
X88851600Y-78802400D02*
G75*
G02*
X89051600Y-78802400I100000J0D01*
G01*
D15*
X126331200Y-104300800D02*
X126331200Y-102920800D01*
X127711200Y-104300800D02*
X126331200Y-104300800D01*
X128981200Y-101540800D02*
X131631200Y-101540800D01*
X128981200Y-104300800D02*
X128981200Y-101540800D01*
X128981200Y-104300800D02*
X131631200Y-104300800D01*
X131631200Y-104300800D02*
X131631200Y-101540800D01*
X51970000Y-102434400D02*
X52307000Y-102434400D01*
X51970000Y-107674400D02*
X51970000Y-102434400D01*
X51970000Y-107674400D02*
X52307000Y-107674400D01*
X54373000Y-102434400D02*
X54710000Y-102434400D01*
X54373000Y-107674400D02*
X54710000Y-107674400D01*
X54710000Y-107674400D02*
X54710000Y-102434400D01*
X114326800Y-77850313D02*
X112786800Y-77850313D01*
X114326800Y-77890313D02*
X112786800Y-77890313D01*
X114326800Y-77930313D02*
X112787800Y-77930313D01*
X114326800Y-77970313D02*
X112789800Y-77970313D01*
X114326800Y-78010313D02*
X112791800Y-78010313D01*
X114326800Y-78050313D02*
X112794800Y-78050313D01*
X114326800Y-78090313D02*
X112797800Y-78090313D01*
X114326800Y-78130313D02*
X112801800Y-78130313D01*
X114326800Y-78170313D02*
X112806800Y-78170313D01*
X114326800Y-78210313D02*
X112811800Y-78210313D01*
X114326800Y-78250313D02*
X112817800Y-78250313D01*
X114326800Y-78290313D02*
X112823800Y-78290313D01*
X114326800Y-78330313D02*
X112830800Y-78330313D01*
X114326800Y-78370313D02*
X112838800Y-78370313D01*
X114326800Y-78410313D02*
X112847800Y-78410313D01*
X114326800Y-78450313D02*
X112856800Y-78450313D01*
X114326800Y-78490313D02*
X112865800Y-78490313D01*
X114326800Y-78530313D02*
X112876800Y-78530313D01*
X114326800Y-78570313D02*
X112887800Y-78570313D01*
X114326800Y-78610313D02*
X112899800Y-78610313D01*
X114326800Y-78650313D02*
X112911800Y-78650313D01*
X114326800Y-78690313D02*
X112924800Y-78690313D01*
X114326800Y-78730313D02*
X112938800Y-78730313D01*
X114326800Y-78770313D02*
X112953800Y-78770313D01*
X114326800Y-78810313D02*
X112968800Y-78810313D01*
X114326800Y-78850313D02*
X112984800Y-78850313D01*
X114326800Y-78890313D02*
X113001800Y-78890313D01*
X114326800Y-78930313D02*
X113019800Y-78930313D01*
X114326800Y-78970313D02*
X113037800Y-78970313D01*
X114326800Y-79010313D02*
X113057800Y-79010313D01*
X114326800Y-79050313D02*
X113077800Y-79050313D01*
X114326800Y-79090313D02*
X113098800Y-79090313D01*
X114326800Y-79130313D02*
X113120800Y-79130313D01*
X114326800Y-79170313D02*
X113143800Y-79170313D01*
X114326800Y-79210313D02*
X113167800Y-79210313D01*
X114326800Y-79250313D02*
X113191800Y-79250313D01*
X114326800Y-79290313D02*
X113217800Y-79290313D01*
X114326800Y-79330313D02*
X113244800Y-79330313D01*
X114326800Y-79370313D02*
X113272800Y-79370313D01*
X114326800Y-79410313D02*
X113301800Y-79410313D01*
X114326800Y-79450313D02*
X113331800Y-79450313D01*
X114326800Y-79490313D02*
X113363800Y-79490313D01*
X114326800Y-79530313D02*
X113396800Y-79530313D01*
X114326800Y-79570313D02*
X113430800Y-79570313D01*
X114326800Y-79610313D02*
X113465800Y-79610313D01*
X114326800Y-79650313D02*
X113502800Y-79650313D01*
X114326800Y-79690313D02*
X113541800Y-79690313D01*
X114326800Y-79730313D02*
X113581800Y-79730313D01*
X114326800Y-79770313D02*
X113623800Y-79770313D01*
X114326800Y-79810313D02*
X113667800Y-79810313D01*
X114326800Y-79850313D02*
X113714800Y-79850313D01*
X115649800Y-80450313D02*
X115083800Y-80450313D01*
X115883800Y-80410313D02*
X114849800Y-80410313D01*
X116043800Y-80370313D02*
X114689800Y-80370313D01*
X116171800Y-80330313D02*
X114561800Y-80330313D01*
X116280800Y-80290313D02*
X114452800Y-80290313D01*
X116377800Y-80250313D02*
X114355800Y-80250313D01*
X116464800Y-80210313D02*
X114268800Y-80210313D01*
X116543800Y-80170313D02*
X114189800Y-80170313D01*
X116617800Y-80130313D02*
X114115800Y-80130313D01*
X116685800Y-80090313D02*
X114047800Y-80090313D01*
X116749800Y-80050313D02*
X113983800Y-80050313D01*
X116809800Y-80010313D02*
X113923800Y-80010313D01*
X116841800Y-75045538D02*
X116841800Y-75545538D01*
X116865800Y-79970313D02*
X113867800Y-79970313D01*
X116919800Y-79930313D02*
X113813800Y-79930313D01*
X116970800Y-79890313D02*
X113762800Y-79890313D01*
X117018800Y-79850313D02*
X116406800Y-79850313D01*
X117065800Y-79810313D02*
X116406800Y-79810313D01*
X117091800Y-75295538D02*
X116591800Y-75295538D01*
X117109800Y-79770313D02*
X116406800Y-79770313D01*
X117151800Y-79730313D02*
X116406800Y-79730313D01*
X117191800Y-79690313D02*
X116406800Y-79690313D01*
X117230800Y-79650313D02*
X116406800Y-79650313D01*
X117267800Y-79610313D02*
X116406800Y-79610313D01*
X117302800Y-79570313D02*
X116406800Y-79570313D01*
X117336800Y-79530313D02*
X116406800Y-79530313D01*
X117369800Y-79490313D02*
X116406800Y-79490313D01*
X117401800Y-79450313D02*
X116406800Y-79450313D01*
X117431800Y-79410313D02*
X116406800Y-79410313D01*
X117460800Y-79370313D02*
X116406800Y-79370313D01*
X117488800Y-79330313D02*
X116406800Y-79330313D01*
X117515800Y-79290313D02*
X116406800Y-79290313D01*
X117541800Y-79250313D02*
X116406800Y-79250313D01*
X117565800Y-79210313D02*
X116406800Y-79210313D01*
X117589800Y-79170313D02*
X116406800Y-79170313D01*
X117612800Y-79130313D02*
X116406800Y-79130313D01*
X117634800Y-79090313D02*
X116406800Y-79090313D01*
X117655800Y-79050313D02*
X116406800Y-79050313D01*
X117675800Y-79010313D02*
X116406800Y-79010313D01*
X117695800Y-78970313D02*
X116406800Y-78970313D01*
X117713800Y-78930313D02*
X116406800Y-78930313D01*
X117731800Y-78890313D02*
X116406800Y-78890313D01*
X117748800Y-78850313D02*
X116406800Y-78850313D01*
X117764800Y-78810313D02*
X116406800Y-78810313D01*
X117779800Y-78770313D02*
X116406800Y-78770313D01*
X117794800Y-78730313D02*
X116406800Y-78730313D01*
X117808800Y-78690313D02*
X116406800Y-78690313D01*
X117821800Y-78650313D02*
X116406800Y-78650313D01*
X117833800Y-78610313D02*
X116406800Y-78610313D01*
X117845800Y-78570313D02*
X116406800Y-78570313D01*
X117856800Y-78530313D02*
X116406800Y-78530313D01*
X117867800Y-78490313D02*
X116406800Y-78490313D01*
X117876800Y-78450313D02*
X116406800Y-78450313D01*
X117885800Y-78410313D02*
X116406800Y-78410313D01*
X117894800Y-78370313D02*
X116406800Y-78370313D01*
X117902800Y-78330313D02*
X116406800Y-78330313D01*
X117909800Y-78290313D02*
X116406800Y-78290313D01*
X117915800Y-78250313D02*
X116406800Y-78250313D01*
X117921800Y-78210313D02*
X116406800Y-78210313D01*
X117926800Y-78170313D02*
X116406800Y-78170313D01*
X117931800Y-78130313D02*
X116406800Y-78130313D01*
X117935800Y-78090313D02*
X116406800Y-78090313D01*
X117938800Y-78050313D02*
X116406800Y-78050313D01*
X117941800Y-78010313D02*
X116406800Y-78010313D01*
X117943800Y-77970313D02*
X116406800Y-77970313D01*
X117945800Y-77930313D02*
X116406800Y-77930313D01*
X117946800Y-77850313D02*
X116406800Y-77850313D01*
X117946800Y-77890313D02*
X116406800Y-77890313D01*
X117986800Y-77850313D02*
G75*
G02*
X112746800Y-77850313I-2620000J0D01*
G01*
X112746800Y-77850313D02*
G75*
G02*
X117986800Y-77850313I2620000J0D01*
G01*
X63420000Y-132956000D02*
X63420000Y-133293000D01*
X63420000Y-132956000D02*
X68660000Y-132956000D01*
X63420000Y-135359000D02*
X63420000Y-135696000D01*
X63420000Y-135696000D02*
X68660000Y-135696000D01*
X68660000Y-132956000D02*
X68660000Y-133293000D01*
X68660000Y-135359000D02*
X68660000Y-135696000D01*
X58066000Y-123516400D02*
X58403000Y-123516400D01*
X58066000Y-128756400D02*
X58066000Y-123516400D01*
X58066000Y-128756400D02*
X58403000Y-128756400D01*
X60469000Y-123516400D02*
X60806000Y-123516400D01*
X60469000Y-128756400D02*
X60806000Y-128756400D01*
X60806000Y-128756400D02*
X60806000Y-123516400D01*
X70532000Y-132956000D02*
X70532000Y-133293000D01*
X70532000Y-132956000D02*
X75772000Y-132956000D01*
X70532000Y-135359000D02*
X70532000Y-135696000D01*
X70532000Y-135696000D02*
X75772000Y-135696000D01*
X75772000Y-132956000D02*
X75772000Y-133293000D01*
X75772000Y-135359000D02*
X75772000Y-135696000D01*
D16*
X43670400Y-117960700D02*
X57670400Y-117960700D01*
X43670400Y-120910700D02*
X43670400Y-117960700D01*
X43670400Y-129460700D02*
X43670400Y-126910700D01*
X55670400Y-129460700D02*
X43670400Y-129460700D01*
X57670400Y-117960700D02*
X57670400Y-129460700D01*
X57670400Y-129460700D02*
X57570400Y-129460700D01*
D17*
X45640400Y-117310700D02*
G75*
G02*
X45300400Y-117310700I-170000J0D01*
G01*
X45300400Y-117310700D02*
G75*
G02*
X45640400Y-117310700I170000J0D01*
G01*
D16*
X52704800Y-133930000D02*
X52704800Y-143430000D01*
X62204800Y-133930000D02*
X52704800Y-133930000D01*
X62204800Y-143430000D02*
X62204800Y-133930000D01*
D14*
X55054800Y-133430000D02*
G75*
G02*
X54854800Y-133430000I-100000J0D01*
G01*
X54854800Y-133430000D02*
G75*
G02*
X55054800Y-133430000I100000J0D01*
G01*
D16*
X60528200Y-102355400D02*
X65028200Y-102355400D01*
X60528200Y-107955400D02*
X65028200Y-107955400D01*
D14*
X58493200Y-102470400D02*
G75*
G02*
X58293200Y-102470400I-100000J0D01*
G01*
X58293200Y-102470400D02*
G75*
G02*
X58493200Y-102470400I100000J0D01*
G01*
D15*
X126331200Y-107856800D02*
X126331200Y-106476800D01*
X127711200Y-107856800D02*
X126331200Y-107856800D01*
X128981200Y-105096800D02*
X131631200Y-105096800D01*
X128981200Y-107856800D02*
X128981200Y-105096800D01*
X128981200Y-107856800D02*
X131631200Y-107856800D01*
X131631200Y-107856800D02*
X131631200Y-105096800D01*
%LPC*%
G36*
X49225200Y-73146600D02*
G01*
X50088800Y-73146600D01*
X50088800Y-72243000D01*
X49225200Y-72243000D01*
X49225200Y-73146600D01*
G37*
G36*
X49225200Y-75686600D02*
G01*
X50088800Y-75686600D01*
X50088800Y-74783000D01*
X49225200Y-74783000D01*
X49225200Y-75686600D01*
G37*
G36*
X49225200Y-78226600D02*
G01*
X50088800Y-78226600D01*
X50088800Y-77323000D01*
X49225200Y-77323000D01*
X49225200Y-78226600D01*
G37*
G36*
X49225200Y-80766600D02*
G01*
X50088800Y-80766600D01*
X50088800Y-79863000D01*
X49225200Y-79863000D01*
X49225200Y-80766600D01*
G37*
G36*
X49225200Y-83306600D02*
G01*
X50088800Y-83306600D01*
X50088800Y-82403000D01*
X49225200Y-82403000D01*
X49225200Y-83306600D01*
G37*
G36*
X49225200Y-85846600D02*
G01*
X50088800Y-85846600D01*
X50088800Y-84943000D01*
X49225200Y-84943000D01*
X49225200Y-85846600D01*
G37*
G36*
X49225200Y-88386600D02*
G01*
X50088800Y-88386600D01*
X50088800Y-87483000D01*
X49225200Y-87483000D01*
X49225200Y-88386600D01*
G37*
G36*
X66243200Y-73146600D02*
G01*
X67106800Y-73146600D01*
X67106800Y-72243000D01*
X66243200Y-72243000D01*
X66243200Y-73146600D01*
G37*
G36*
X66243200Y-75686600D02*
G01*
X67106800Y-75686600D01*
X67106800Y-74783000D01*
X66243200Y-74783000D01*
X66243200Y-75686600D01*
G37*
G36*
X66243200Y-78226600D02*
G01*
X67106800Y-78226600D01*
X67106800Y-77323000D01*
X66243200Y-77323000D01*
X66243200Y-78226600D01*
G37*
G36*
X66243200Y-80766600D02*
G01*
X67106800Y-80766600D01*
X67106800Y-79863000D01*
X66243200Y-79863000D01*
X66243200Y-80766600D01*
G37*
G36*
X66243200Y-83306600D02*
G01*
X67106800Y-83306600D01*
X67106800Y-82403000D01*
X66243200Y-82403000D01*
X66243200Y-83306600D01*
G37*
G36*
X66243200Y-85846600D02*
G01*
X67106800Y-85846600D01*
X67106800Y-84943000D01*
X66243200Y-84943000D01*
X66243200Y-85846600D01*
G37*
G36*
X66243200Y-88386600D02*
G01*
X67106800Y-88386600D01*
X67106800Y-87483000D01*
X66243200Y-87483000D01*
X66243200Y-88386600D01*
G37*
D18*
G36*
X49790629Y-73533531D02*
G01*
X49911178Y-73594955D01*
X50009780Y-73693557D01*
X50088800Y-73936754D01*
X50088800Y-73988798D01*
X50068269Y-74118429D01*
X50006845Y-74238978D01*
X49908243Y-74337580D01*
X49665046Y-74416600D01*
X49225200Y-74416600D01*
X49225200Y-73513000D01*
X49660998Y-73513000D01*
X49790629Y-73533531D01*
G37*
G36*
X49790629Y-76073531D02*
G01*
X49911178Y-76134955D01*
X50009780Y-76233557D01*
X50088800Y-76476754D01*
X50088800Y-76528798D01*
X50068269Y-76658429D01*
X50006845Y-76778978D01*
X49908243Y-76877580D01*
X49665046Y-76956600D01*
X49225200Y-76956600D01*
X49225200Y-76053000D01*
X49660998Y-76053000D01*
X49790629Y-76073531D01*
G37*
G36*
X49790629Y-78613531D02*
G01*
X49911178Y-78674955D01*
X50009780Y-78773557D01*
X50088800Y-79016754D01*
X50088800Y-79068798D01*
X50068269Y-79198429D01*
X50006845Y-79318978D01*
X49908243Y-79417580D01*
X49665046Y-79496600D01*
X49225200Y-79496600D01*
X49225200Y-78593000D01*
X49660998Y-78593000D01*
X49790629Y-78613531D01*
G37*
G36*
X49790629Y-81153531D02*
G01*
X49911178Y-81214955D01*
X50009780Y-81313557D01*
X50088800Y-81556754D01*
X50088800Y-81608798D01*
X50068269Y-81738429D01*
X50006845Y-81858978D01*
X49908243Y-81957580D01*
X49665046Y-82036600D01*
X49225200Y-82036600D01*
X49225200Y-81133000D01*
X49660998Y-81133000D01*
X49790629Y-81153531D01*
G37*
G36*
X49790629Y-83693531D02*
G01*
X49911178Y-83754955D01*
X50009780Y-83853557D01*
X50088800Y-84096754D01*
X50088800Y-84148798D01*
X50068269Y-84278429D01*
X50006845Y-84398978D01*
X49908243Y-84497580D01*
X49665046Y-84576600D01*
X49225200Y-84576600D01*
X49225200Y-83673000D01*
X49660998Y-83673000D01*
X49790629Y-83693531D01*
G37*
G36*
X49790629Y-86233531D02*
G01*
X49911178Y-86294955D01*
X50009780Y-86393557D01*
X50088800Y-86636754D01*
X50088800Y-86688798D01*
X50068269Y-86818429D01*
X50006845Y-86938978D01*
X49908243Y-87037580D01*
X49665046Y-87116600D01*
X49225200Y-87116600D01*
X49225200Y-86213000D01*
X49660998Y-86213000D01*
X49790629Y-86233531D01*
G37*
G36*
X67106800Y-82036600D02*
G01*
X66671002Y-82036600D01*
X66541371Y-82016069D01*
X66420822Y-81954645D01*
X66322220Y-81856043D01*
X66243200Y-81612846D01*
X66243200Y-81560802D01*
X66263731Y-81431171D01*
X66325155Y-81310622D01*
X66423757Y-81212020D01*
X66666954Y-81133000D01*
X67106800Y-81133000D01*
X67106800Y-82036600D01*
G37*
G36*
X67106800Y-84576600D02*
G01*
X66671002Y-84576600D01*
X66541371Y-84556069D01*
X66420822Y-84494645D01*
X66322220Y-84396043D01*
X66243200Y-84152846D01*
X66243200Y-84100802D01*
X66263731Y-83971171D01*
X66325155Y-83850622D01*
X66423757Y-83752020D01*
X66666954Y-83673000D01*
X67106800Y-83673000D01*
X67106800Y-84576600D01*
G37*
G36*
X67106800Y-87116600D02*
G01*
X66671002Y-87116600D01*
X66541371Y-87096069D01*
X66420822Y-87034645D01*
X66322220Y-86936043D01*
X66243200Y-86692846D01*
X66243200Y-86640802D01*
X66263731Y-86511171D01*
X66325155Y-86390622D01*
X66423757Y-86292020D01*
X66666954Y-86213000D01*
X67106800Y-86213000D01*
X67106800Y-87116600D01*
G37*
D19*
X104495600Y-117906800D03*
D20*
X107035600Y-117906800D03*
X109575600Y-117906800D03*
X112115600Y-117906800D03*
X114655600Y-117906800D03*
D21*
X85344000Y-78037600D03*
X85344000Y-83037600D03*
X81534000Y-124002800D03*
X81534000Y-116382800D03*
X102122956Y-100700556D03*
X97122956Y-100700556D03*
X73507600Y-117917600D03*
X73507600Y-110297600D03*
X59436000Y-121473600D03*
X59436000Y-116473600D03*
X78536800Y-124002800D03*
X78536800Y-116382800D03*
X73507600Y-108174800D03*
X73507600Y-103174800D03*
X106984800Y-74557513D03*
X106984800Y-79557513D03*
X105633200Y-91175200D03*
X105633200Y-96175200D03*
X60288800Y-95758000D03*
X65288800Y-95758000D03*
D22*
X107355356Y-106491756D03*
D21*
X107355356Y-104491756D03*
D22*
X110764000Y-94335600D03*
D21*
X110764000Y-92335600D03*
X102173756Y-103290643D03*
X102173756Y-108290643D03*
X106984800Y-81658713D03*
X106984800Y-86658713D03*
D19*
X73660000Y-126847600D03*
D20*
X76200000Y-126847600D03*
X78740000Y-126847600D03*
X81280000Y-126847600D03*
D22*
X115366800Y-84419513D03*
D21*
X115366800Y-82419513D03*
D23*
X48209200Y-113914488D03*
D21*
X48209200Y-115914488D03*
X70510400Y-117917600D03*
X70510400Y-110297600D03*
D22*
X53746400Y-115853600D03*
D21*
X53746400Y-113853600D03*
X70510400Y-108164000D03*
X70510400Y-103164000D03*
D24*
X90271600Y-78802400D03*
X90271600Y-79452400D03*
X90271600Y-80102400D03*
X90271600Y-80752400D03*
X90271600Y-81402400D03*
X90271600Y-82052400D03*
X90271600Y-82702400D03*
X90271600Y-83352400D03*
X90271600Y-84002400D03*
X90271600Y-84652400D03*
X96011600Y-84652400D03*
X96011600Y-84002400D03*
X96011600Y-83352400D03*
X96011600Y-82702400D03*
X96011600Y-82052400D03*
X96011600Y-81402400D03*
X96011600Y-80752400D03*
X96011600Y-80102400D03*
X96011600Y-79452400D03*
X96011600Y-78802400D03*
D25*
X49276000Y-72694800D03*
D26*
X50546000Y-72694800D03*
D25*
X49276000Y-75234800D03*
D26*
X50546000Y-75234800D03*
D25*
X49276000Y-77774800D03*
D26*
X50546000Y-77774800D03*
D25*
X49276000Y-80314800D03*
D26*
X50546000Y-80314800D03*
D25*
X49276000Y-82854800D03*
D26*
X50546000Y-82854800D03*
D25*
X49276000Y-85394800D03*
D26*
X50546000Y-85394800D03*
D25*
X49276000Y-87934800D03*
D26*
X50546000Y-87934800D03*
X65786000Y-87934800D03*
D25*
X67056000Y-87934800D03*
D26*
X65786000Y-85394800D03*
D27*
X66486000Y-85394800D03*
D25*
X67056000Y-85394800D03*
D26*
X65786000Y-82854800D03*
D25*
X67056000Y-82854800D03*
D26*
X65786000Y-80314800D03*
D27*
X66486000Y-80314800D03*
D25*
X67056000Y-80314800D03*
D26*
X65786000Y-77774800D03*
D25*
X67056000Y-77774800D03*
D26*
X65786000Y-75234800D03*
D25*
X67056000Y-75234800D03*
D26*
X65786000Y-72694800D03*
D25*
X67056000Y-72694800D03*
X49276000Y-73964800D03*
D28*
X49456000Y-73964800D03*
D25*
X49276000Y-76504800D03*
X49276000Y-79044800D03*
D28*
X49456000Y-79044800D03*
D25*
X49276000Y-81584800D03*
X49276000Y-84124800D03*
X49276000Y-86664800D03*
X67056000Y-86664800D03*
X67056000Y-84124800D03*
X67056000Y-81584800D03*
D19*
X127711200Y-102920800D03*
D20*
X130251200Y-102920800D03*
D21*
X53340000Y-107554400D03*
X53340000Y-102554400D03*
D23*
X115366800Y-76850313D03*
D21*
X115366800Y-78850313D03*
X63540000Y-134326000D03*
X68540000Y-134326000D03*
X59436000Y-128636400D03*
X59436000Y-123636400D03*
X70652000Y-134326000D03*
X75652000Y-134326000D03*
D29*
X45470400Y-123910700D03*
D30*
X48970400Y-128410700D03*
X53770400Y-118910700D03*
D29*
X56570400Y-128110700D03*
D31*
X54954800Y-135930000D03*
X54954800Y-138430000D03*
X57454800Y-135930000D03*
X57454800Y-138430000D03*
X59954800Y-135930000D03*
X59954800Y-138430000D03*
D32*
X59893200Y-102880400D03*
X59893200Y-103530400D03*
X59893200Y-104180400D03*
X59893200Y-104830400D03*
X59893200Y-105480400D03*
X59893200Y-106130400D03*
X59893200Y-106780400D03*
X59893200Y-107430400D03*
X65663200Y-107430400D03*
X65663200Y-106780400D03*
X65663200Y-106130400D03*
X65663200Y-105480400D03*
X65663200Y-104830400D03*
X65663200Y-104180400D03*
X65663200Y-103530400D03*
X65663200Y-102880400D03*
D19*
X127711200Y-106476800D03*
D20*
X130251200Y-106476800D03*
%LPD*%
M02*
