M48
; DRILL file {KiCad 9.0.2} date 2025-07-04T19:53:18+1200
; FORMAT={-:-/ absolute / metric / decimal}
; #@! TF.CreationDate,2025-07-04T19:53:18+12:00
; #@! TF.GenerationSoftware,Kicad,Pcbnew,9.0.2
; #@! TF.FileFunction,Plated,1,2,PTH
FMAT,2
METRIC
; #@! TA.AperFunction,Plated,PTH,ViaDrill
T1C0.300
; #@! TA.AperFunction,Plated,PTH,ComponentDrill
T2C0.600
; #@! TA.AperFunction,Plated,PTH,ComponentDrill
T3C0.800
; #@! TA.AperFunction,Plated,PTH,ComponentDrill
T4C0.850
; #@! TA.AperFunction,Plated,PTH,ComponentDrill
T5C1.000
%
G90
G05
T1
X49.073Y-71.323
X61.468Y-89.002
X62.89Y-89.916
X63.144Y-136.601
X64.008Y-103.937
X64.008Y-107.594
X64.313Y-106.375
X64.465Y-101.803
X68.834Y-85.75
X87.833Y-82.112
X88.544Y-80.08
X88.595Y-78.81
X98.247Y-78.842
X99.009Y-79.451
T2
X49.276Y-72.695
X49.276Y-73.965
X49.276Y-75.235
X49.276Y-76.505
X49.276Y-77.775
X49.276Y-79.045
X49.276Y-80.315
X49.276Y-81.585
X49.276Y-82.855
X49.276Y-84.125
X49.276Y-85.395
X49.276Y-86.665
X49.276Y-87.935
X67.056Y-72.695
X67.056Y-75.235
X67.056Y-77.775
X67.056Y-80.315
X67.056Y-81.585
X67.056Y-82.855
X67.056Y-84.125
X67.056Y-85.395
X67.056Y-86.665
X67.056Y-87.935
T3
X48.209Y-113.914
X48.209Y-115.914
X53.34Y-102.554
X53.34Y-107.554
X53.746Y-113.854
X53.746Y-115.854
X59.436Y-116.474
X59.436Y-121.474
X59.436Y-123.636
X59.436Y-128.636
X60.289Y-95.758
X63.54Y-134.326
X65.289Y-95.758
X68.54Y-134.326
X70.51Y-103.164
X70.51Y-108.164
X70.51Y-110.298
X70.51Y-117.918
X70.652Y-134.326
X73.508Y-103.175
X73.508Y-108.175
X73.508Y-110.298
X73.508Y-117.918
X75.652Y-134.326
X78.537Y-116.383
X78.537Y-124.003
X81.534Y-116.383
X81.534Y-124.003
X85.344Y-78.038
X85.344Y-83.038
X97.123Y-100.701
X102.123Y-100.701
X102.174Y-103.291
X102.174Y-108.291
X105.633Y-91.175
X105.633Y-96.175
X106.985Y-74.558
X106.985Y-79.558
X106.985Y-81.659
X106.985Y-86.659
X107.355Y-104.492
X107.355Y-106.492
X110.764Y-92.336
X110.764Y-94.336
X115.367Y-76.85
X115.367Y-78.85
X115.367Y-82.42
X115.367Y-84.42
T4
X50.546Y-72.695
X50.546Y-75.235
X50.546Y-77.775
X50.546Y-80.315
X50.546Y-82.855
X50.546Y-85.395
X50.546Y-87.935
X65.786Y-72.695
X65.786Y-75.235
X65.786Y-77.775
X65.786Y-80.315
X65.786Y-82.855
X65.786Y-85.395
X65.786Y-87.935
T5
X54.955Y-135.93
X54.955Y-138.43
X57.455Y-135.93
X57.455Y-138.43
X59.955Y-135.93
X59.955Y-138.43
X73.66Y-126.848
X76.2Y-126.848
X78.74Y-126.848
X81.28Y-126.848
X104.496Y-117.907
X107.036Y-117.907
X109.576Y-117.907
X112.116Y-117.907
X114.656Y-117.907
X127.711Y-102.921
X127.711Y-106.477
X130.251Y-102.921
X130.251Y-106.477
T5
G00X45.47Y-123.411
M15
G01X45.47Y-124.411
M16
G05
G00X48.47Y-128.411
M15
G01X49.47Y-128.411
M16
G05
G00X53.27Y-118.911
M15
G01X54.27Y-118.911
M16
G05
G00X56.57Y-127.611
M15
G01X56.57Y-128.611
M16
G05
M30
