G04 #@! TF.GenerationSoftware,KiCad,Pcbnew,9.0.2*
G04 #@! TF.CreationDate,2025-07-04T19:53:14+12:00*
G04 #@! TF.ProjectId,DuckyDK MTR-1,4475636b-7944-44b2-904d-54522d312e6b,rev?*
G04 #@! TF.SameCoordinates,Original*
G04 #@! TF.FileFunction,Paste,Top*
G04 #@! TF.FilePolarity,Positive*
%FSLAX46Y46*%
G04 Gerber Fmt 4.6, Leading zero omitted, Abs format (unit mm)*
G04 Created by KiCad (PCBNEW 9.0.2) date 2025-07-04 19:53:14*
%MOMM*%
%LPD*%
G01*
G04 APERTURE LIST*
G04 Aperture macros list*
%AMRoundRect*
0 Rectangle with rounded corners*
0 $1 Rounding radius*
0 $2 $3 $4 $5 $6 $7 $8 $9 X,Y pos of 4 corners*
0 Add a 4 corners polygon primitive as box body*
4,1,4,$2,$3,$4,$5,$6,$7,$8,$9,$2,$3,0*
0 Add four circle primitives for the rounded corners*
1,1,$1+$1,$2,$3*
1,1,$1+$1,$4,$5*
1,1,$1+$1,$6,$7*
1,1,$1+$1,$8,$9*
0 Add four rect primitives between the rounded corners*
20,1,$1+$1,$2,$3,$4,$5,0*
20,1,$1+$1,$4,$5,$6,$7,0*
20,1,$1+$1,$6,$7,$8,$9,0*
20,1,$1+$1,$8,$9,$2,$3,0*%
G04 Aperture macros list end*
%ADD10RoundRect,0.051250X-0.733750X-0.153750X0.733750X-0.153750X0.733750X0.153750X-0.733750X0.153750X0*%
%ADD11R,1.270000X0.903600*%
%ADD12O,1.270000X0.903600*%
%ADD13RoundRect,0.051250X-0.698750X-0.153750X0.698750X-0.153750X0.698750X0.153750X-0.698750X0.153750X0*%
G04 APERTURE END LIST*
D10*
X90271600Y-78802400D03*
X90271600Y-79452400D03*
X90271600Y-80102400D03*
X90271600Y-80752400D03*
X90271600Y-81402400D03*
X90271600Y-82052400D03*
X90271600Y-82702400D03*
X90271600Y-83352400D03*
X90271600Y-84002400D03*
X90271600Y-84652400D03*
X96011600Y-84652400D03*
X96011600Y-84002400D03*
X96011600Y-83352400D03*
X96011600Y-82702400D03*
X96011600Y-82052400D03*
X96011600Y-81402400D03*
X96011600Y-80752400D03*
X96011600Y-80102400D03*
X96011600Y-79452400D03*
X96011600Y-78802400D03*
D11*
X66486000Y-85394800D03*
X66486000Y-80314800D03*
D12*
X49456000Y-73964800D03*
X49456000Y-79044800D03*
D13*
X59893200Y-102880400D03*
X59893200Y-103530400D03*
X59893200Y-104180400D03*
X59893200Y-104830400D03*
X59893200Y-105480400D03*
X59893200Y-106130400D03*
X59893200Y-106780400D03*
X59893200Y-107430400D03*
X65663200Y-107430400D03*
X65663200Y-106780400D03*
X65663200Y-106130400D03*
X65663200Y-105480400D03*
X65663200Y-104830400D03*
X65663200Y-104180400D03*
X65663200Y-103530400D03*
X65663200Y-102880400D03*
M02*
